<?xml version="1.0" encoding="UTF-8"?>
<svg id="Calque_1" data-name="Calque 1" xmlns="http://www.w3.org/2000/svg" viewBox="0 0 308.62 117.53">
  <defs>
    <style>
      .cls-1 {
        fill: #e8491f;
      }
    </style>
  </defs>
  <g>
    <path class="cls-1" d="M33.83,12.34c.42,3.39-.08,6.58-1.48,9.58-1.39,3-3.42,5.61-6.07,7.86,1.57.09,2.95.42,4.16.99,1.21.57,2.25,1.32,3.11,2.26.86.94,1.57,2.04,2.11,3.29.54,1.26.9,2.6,1.07,4.02.35,2.8-.02,5.33-1.08,7.58-1.06,2.26-2.54,4.19-4.45,5.81-1.91,1.62-4.09,2.94-6.54,3.96-2.45,1.02-4.94,1.71-7.45,2.08-1.38.2-2.78.31-4.19.32-1.41.01-2.77-.13-4.08-.43-.47-.08-.93-.62-1.39-1.62-.46-1.01-.9-2.25-1.31-3.74-.41-1.49-.81-3.11-1.19-4.85-.38-1.75-.72-3.42-1.03-5.03-.31-1.61-.56-3.02-.75-4.24-.19-1.22-.33-2.08-.41-2.57-.27-1.71-.54-3.44-.82-5.17-.27-1.73-.5-3.47-.67-5.2-.07-.44-.17-1.13-.29-2.06-.12-.93-.26-1.98-.42-3.13-.16-1.15-.3-2.37-.42-3.66-.12-1.28-.21-2.49-.25-3.61-.04-1.12-.01-2.09.1-2.91.11-.82.31-1.35.59-1.6,1.08-.92,2.3-1.82,3.66-2.71,1.36-.88,2.78-1.69,4.28-2.41,1.49-.72,3-1.34,4.53-1.86,1.53-.52,3-.87,4.41-1.07,1.94-.27,3.84-.26,5.72.01,1.87.28,3.54.85,5.01,1.71,1.46.86,2.69,1.99,3.68,3.39.99,1.4,1.61,3.06,1.84,4.97ZM21.47,17.91c-.11-.83-.47-1.41-1.06-1.73-.6-.32-1.33-.42-2.21-.29-.72.1-1.46.35-2.22.76-.76.41-1.39.9-1.88,1.47-.13.17-.22.61-.24,1.31-.03.71-.02,1.49.03,2.36.05.87.11,1.69.2,2.45.08.76.14,1.27.18,1.51.01.1.04.26.07.48.03.22.08.45.14.69.06.24.13.46.21.64.08.19.17.28.27.26.87-.13,1.72-.56,2.55-1.3.83-.74,1.56-1.62,2.17-2.63.62-1.01,1.1-2.06,1.44-3.16.35-1.1.47-2.04.36-2.82ZM24.07,39.22c-.11-.83-.5-1.38-1.15-1.64-.65-.26-1.36-.34-2.12-.23-.71.1-1.43.36-2.17.79-.74.43-1.33.9-1.77,1.42-.14.12-.21.38-.23.78-.02.4,0,.84.04,1.31.04.47.08.92.12,1.33.03.42.06.7.08.85.01.1.04.29.09.59.04.29.1.6.17.91.07.32.16.6.28.86.11.26.22.38.32.37.7-.1,1.45-.41,2.24-.92.79-.51,1.52-1.11,2.16-1.8.64-.69,1.15-1.45,1.53-2.27.37-.83.51-1.61.41-2.34Z"/>
    <path class="cls-1" d="M52.59,27.61c.07.69.15,1.42.23,2.18.08.76.13,1.49.15,2.19.04.84.13,1.97.28,3.37.15,1.4.26,2.92.33,4.56.07,1.64.08,3.3.04,5-.05,1.7-.25,3.26-.59,4.7-.35,1.43-.89,2.62-1.61,3.58-.72.95-1.7,1.52-2.93,1.71-.94.16-1.77-.12-2.51-.83-.74-.71-1.39-1.67-1.96-2.88-.57-1.2-1.05-2.57-1.43-4.09-.38-1.53-.71-3.01-.98-4.45-.27-1.44-.48-2.77-.63-4-.15-1.23-.25-2.14-.33-2.73-.09-.79-.23-1.91-.4-3.36-.17-1.45-.31-3.02-.41-4.7-.1-1.68-.11-3.4-.03-5.16.08-1.75.3-3.38.68-4.87.37-1.49.95-2.73,1.73-3.71.78-.99,1.84-1.56,3.18-1.71,1.4-.16,2.53.39,3.4,1.64.87,1.25,1.57,2.74,2.12,4.48.55,1.73.94,3.47,1.18,5.22.24,1.74.4,3.03.49,3.87ZM49.3,2.56c.07.69-.06,1.33-.39,1.91-.33.58-.79,1.12-1.37,1.6-.58.49-1.22.88-1.92,1.18-.7.3-1.37.49-1.99.56-1.04.12-1.98-.02-2.81-.43-.84-.4-1.32-1.12-1.44-2.15-.09-.74.03-1.41.36-2.02.33-.61.75-1.13,1.29-1.57.53-.43,1.15-.79,1.87-1.07.71-.28,1.41-.46,2.09-.53.99-.11,1.94.01,2.82.36.89.35,1.39,1.07,1.5,2.16Z"/>
    <path class="cls-1" d="M90.99,37.7c.11,1.68-.32,3.36-1.28,5.04-.97,1.68-2.22,3.21-3.74,4.59-1.53,1.38-3.18,2.52-4.96,3.43-1.78.91-3.44,1.43-4.97,1.56-2.63.22-5.03-.22-7.21-1.34-2.18-1.12-4.07-2.62-5.67-4.5-1.59-1.88-2.88-4.01-3.86-6.37-.97-2.37-1.58-4.7-1.82-7.02-.25-2.46-.16-5.14.27-8.02.43-2.88,1.27-5.58,2.5-8.08,1.24-2.51,2.91-4.66,5.02-6.44,2.11-1.78,4.73-2.81,7.85-3.07,1.77-.15,3.48,0,5.13.44,1.65.44,3.12,1.14,4.39,2.09,1.27.95,2.31,2.12,3.14,3.5.82,1.38,1.3,2.96,1.42,4.74.16,2.32-.2,4.53-1.08,6.63-.88,2.1-2.1,3.95-3.66,5.56-1.56,1.61-3.4,2.96-5.49,4.05-2.1,1.09-4.28,1.79-6.54,2.08.33,1.41,1.01,2.4,2.05,2.95,1.04.56,2.23.78,3.59.66,1.01-.08,1.96-.41,2.88-.98.92-.57,1.8-1.2,2.66-1.89.86-.69,1.71-1.31,2.56-1.87.85-.56,1.73-.87,2.64-.94,1.01-.07,1.94.19,2.8.77.85.59,1.31,1.4,1.38,2.44ZM77.3,20.46c-.05-.64-.28-1.29-.7-1.96-.42-.66-1.01-.96-1.78-.9-1.13.09-2.06.46-2.78,1.09-.72.63-1.3,1.41-1.74,2.31-.44.91-.75,1.87-.95,2.88-.19,1.01-.28,1.94-.25,2.78.7-.21,1.54-.48,2.51-.82.97-.33,1.89-.74,2.75-1.24.86-.49,1.58-1.09,2.17-1.78.59-.69.85-1.48.78-2.37Z"/>
    <path class="cls-1" d="M116.13,51.65c-.84.04-1.53-.32-2.06-1.06-.53-.75-.94-1.61-1.24-2.58-.29-.98-.5-1.97-.62-2.98-.12-1.01-.2-1.79-.22-2.33-.07-1.48-.05-2.97.06-4.46.11-1.49.24-2.99.4-4.48.16-1.49.3-2.99.41-4.48.11-1.49.14-2.98.07-4.46-.03-.59-.08-1.23-.16-1.93-.08-.69-.23-1.34-.43-1.95-.21-.61-.52-1.1-.95-1.48-.43-.38-.98-.55-1.64-.52-.46.02-.96.41-1.49,1.15-.53.74-1.01,1.59-1.45,2.53-.44.94-.8,1.88-1.09,2.81-.29.93-.41,1.62-.39,2.07.06,1.09.13,2.19.21,3.3.08,1.11.15,2.24.21,3.37.07,1.43.15,2.87.22,4.3,0,.89-.03,1.81-.08,2.76-.05.94-.16,1.87-.31,2.77-.1.9-.28,1.76-.54,2.59-.26.83-.6,1.57-1.04,2.21-.44.64-.97,1.18-1.6,1.61-.62.43-1.38.67-2.28.73-.99.06-1.83-.21-2.52-.82-.69-.6-1.26-1.4-1.72-2.39-.46-.99-.82-2.11-1.08-3.36-.26-1.25-.46-2.48-.61-3.68-.15-1.21-.25-2.32-.29-3.33-.04-1.01-.08-1.82-.12-2.41-.07-1.16-.15-2.32-.22-3.48-.12-1.88-.28-3.73-.47-5.55-.19-1.82-.35-3.65-.47-5.48-.06-.99-.13-2.25-.21-3.78-.07-1.53.02-3.04.29-4.52.27-1.48.79-2.77,1.55-3.86.77-1.09,1.96-1.68,3.57-1.78.73-.04,1.39.14,1.99.56.6.41,1.13.93,1.61,1.55.48.62.88,1.29,1.2,2.02.32.73.58,1.36.76,1.89.48-.72,1.05-1.42,1.72-2.1.67-.68,1.43-1.29,2.29-1.82.86-.54,1.83-.98,2.9-1.33,1.08-.35,2.32-.55,3.72-.61,2.65-.11,4.74.42,6.26,1.58,1.52,1.16,2.66,2.63,3.42,4.42.76,1.78,1.24,3.71,1.46,5.79.22,2.07.35,3.95.41,5.64.03.84-.01,2.09-.11,3.76-.1,1.66-.28,3.5-.55,5.52-.26,2.02-.64,4.08-1.12,6.21-.48,2.12-1.07,4.06-1.76,5.82-.69,1.76-1.52,3.2-2.5,4.33-.98,1.13-2.11,1.72-3.4,1.77Z"/>
    <path class="cls-1" d="M162.89,22.16c-1.35,3.41-2.82,6.97-4.4,10.68-1.58,3.71-3.26,7.18-5.06,10.4-1.1,1.98-2.31,3.64-3.65,4.96-1.34,1.32-2.87,1.99-4.61,2.01-1.39.02-2.76-.67-4.1-2.06-1.34-1.39-2.59-3.05-3.76-4.99-1.17-1.93-2.19-3.89-3.06-5.88-.88-1.99-1.54-3.57-1.97-4.75-.44-1.33-.93-2.75-1.48-4.27-.55-1.52-1.05-3.07-1.5-4.64-.45-1.57-.83-3.14-1.13-4.69-.3-1.55-.47-3.02-.51-4.41-.06-1.93.26-3.52.95-4.78.69-1.26,2.1-1.92,4.23-1.97.83-.02,1.59.2,2.27.65.68.46,1.32,1.1,1.91,1.93.59.83,1.15,1.8,1.68,2.9.54,1.11,1.05,2.32,1.53,3.65.48,1.28.94,2.61,1.37,3.99.43,1.38.86,2.71,1.28,3.99.43,1.28.86,2.53,1.31,3.73.45,1.21,1.03,2.4,1.75,3.58.34-.9.74-1.91,1.19-3.06.45-1.14.93-2.36,1.46-3.65.53-1.29,1.09-2.62,1.7-3.99.61-1.37,1.27-2.69,1.98-3.98,1.38-2.68,2.86-4.96,4.44-6.84,1.58-1.88,3.16-2.82,4.71-2.81,1.45,0,2.49.44,3.1,1.28.62.85.92,1.94.9,3.28-.01,1.34-.26,2.85-.74,4.53-.48,1.68-1.08,3.41-1.81,5.19Z"/>
    <path class="cls-1" d="M199.58,36.48c-.08,1.68-.69,3.3-1.84,4.86-1.15,1.56-2.56,2.94-4.23,4.14-1.67,1.2-3.44,2.15-5.31,2.85-1.87.71-3.57,1.04-5.11.99-2.64-.07-4.97-.78-7.01-2.14-2.04-1.35-3.75-3.06-5.12-5.11-1.37-2.05-2.41-4.31-3.11-6.77-.7-2.46-1.05-4.85-1.02-7.18.03-2.48.41-5.12,1.16-7.94.75-2.81,1.88-5.4,3.39-7.75,1.51-2.35,3.41-4.3,5.71-5.84,2.29-1.54,5.01-2.26,8.14-2.17,1.77.05,3.46.39,5.05,1.01,1.59.63,2.97,1.48,4.12,2.57,1.15,1.09,2.06,2.36,2.73,3.83.66,1.47.96,3.09.88,4.87-.1,2.33-.71,4.48-1.81,6.47-1.11,1.99-2.53,3.69-4.26,5.11-1.73,1.42-3.7,2.56-5.91,3.41-2.21.85-4.45,1.3-6.73,1.34.17,1.44.74,2.5,1.7,3.16.97.67,2.13,1.02,3.49,1.06,1.01.03,2-.19,2.97-.65.97-.46,1.93-.99,2.86-1.58.93-.59,1.85-1.11,2.75-1.57.9-.46,1.81-.67,2.72-.64,1.01.04,1.91.4,2.69,1.08.78.68,1.15,1.54,1.1,2.58ZM187.91,17.82c.02-.64-.14-1.32-.48-2.02-.34-.7-.89-1.07-1.67-1.09-1.13-.03-2.1.23-2.88.77-.79.55-1.45,1.25-1.99,2.1-.54.85-.96,1.77-1.26,2.76-.31.98-.49,1.9-.56,2.74.72-.13,1.58-.31,2.58-.53,1-.22,1.96-.53,2.87-.92.91-.39,1.69-.9,2.35-1.53.66-.62,1.01-1.38,1.04-2.27Z"/>
    <path class="cls-1" d="M223.01,53.16c-.84-.06-1.49-.49-1.93-1.29-.44-.8-.76-1.7-.94-2.71-.18-1-.28-2.02-.29-3.03,0-1.02,0-1.8.04-2.34.1-1.48.28-2.96.56-4.43.27-1.47.58-2.94.9-4.41.33-1.47.63-2.94.91-4.41.28-1.47.47-2.95.57-4.43.04-.59.06-1.24.05-1.93,0-.7-.07-1.36-.21-1.99-.14-.63-.4-1.16-.78-1.58-.38-.42-.91-.66-1.58-.7-.46-.03-1,.3-1.61.98-.61.68-1.19,1.46-1.73,2.35-.54.88-1.01,1.77-1.39,2.67-.39.9-.59,1.56-.62,2.01-.07,1.09-.12,2.19-.16,3.3-.04,1.11-.1,2.24-.17,3.38-.09,1.43-.17,2.87-.26,4.3-.1.89-.24,1.8-.39,2.73-.16.93-.36,1.84-.61,2.72-.2.88-.48,1.72-.83,2.52-.35.8-.78,1.49-1.28,2.08-.51.59-1.1,1.07-1.77,1.43-.67.36-1.45.51-2.34.47-.99-.05-1.8-.42-2.41-1.09-.61-.67-1.1-1.53-1.44-2.56-.35-1.03-.58-2.19-.7-3.45-.12-1.27-.18-2.51-.2-3.73-.02-1.21,0-2.33.08-3.34.07-1.01.13-1.82.15-2.41.06-1.16.11-2.32.17-3.49.09-1.88.14-3.74.15-5.57.01-1.83.06-3.67.15-5.5.05-.99.12-2.25.22-3.78.1-1.53.36-3.02.8-4.46.43-1.44,1.09-2.66,1.97-3.66.88-1,2.13-1.45,3.75-1.37.73.04,1.37.3,1.91.77.55.48,1.02,1.05,1.43,1.72.4.67.73,1.38.97,2.14.24.76.42,1.41.55,1.97.56-.66,1.2-1.29,1.94-1.89.74-.6,1.56-1.12,2.48-1.56.91-.44,1.92-.77,3.03-.99,1.11-.22,2.37-.29,3.77-.19,2.65.19,4.67.95,6.05,2.27,1.38,1.32,2.35,2.91,2.9,4.77.55,1.86.82,3.83.81,5.91-.01,2.09-.09,3.97-.23,5.65-.07.84-.25,2.08-.53,3.72-.29,1.64-.67,3.45-1.16,5.42-.49,1.97-1.09,3.99-1.81,6.04-.72,2.05-1.52,3.92-2.4,5.59-.88,1.67-1.87,3.01-2.97,4.02-1.1,1.01-2.29,1.47-3.58,1.38Z"/>
    <path class="cls-1" d="M272.72,34.46c-.33,2.7-.92,5.35-1.79,7.94-.87,2.59-2.08,4.85-3.61,6.79-1.54,1.94-3.46,3.43-5.76,4.47-2.3,1.04-5.05,1.39-8.27,1.06-3.17-.32-5.76-1.21-7.78-2.67-2.02-1.46-3.57-3.27-4.66-5.46-1.09-2.18-1.79-4.6-2.1-7.27-.3-2.66-.35-5.35-.12-8.06.25-2.96.85-5.87,1.82-8.72.22-.78.61-1.85,1.17-3.22.56-1.37,1.25-2.7,2.06-4,.82-1.29,1.72-2.39,2.72-3.3.99-.9,2.04-1.31,3.13-1.2,1.04.1,1.84.45,2.41,1.05.57.6.99,1.33,1.28,2.18.28.85.43,1.73.44,2.66.01.92-.02,1.75-.09,2.49-.11,1.13-.31,2.23-.6,3.3-.29,1.07-.58,2.13-.89,3.2-.35,1.46-.68,2.92-1.01,4.38-.32,1.46-.55,2.93-.7,4.41-.07.74-.11,1.57-.13,2.49-.01.92.09,1.81.31,2.68.22.87.58,1.61,1.07,2.23.5.62,1.24.98,2.25,1.08,1.3.13,2.38-.1,3.23-.71.85-.61,1.52-1.41,2.01-2.4.49-.99.84-2.08,1.07-3.25.23-1.17.4-2.25.5-3.23.23-2.17.31-4.31.23-6.44-.08-2.13-.14-4.29-.16-6.48-.03-.25-.01-.6.03-1.04.08-.74.28-1.46.62-2.17.34-.71.77-1.34,1.3-1.88.53-.54,1.15-.96,1.86-1.26.71-.3,1.48-.4,2.31-.3,1.14.13,2.1.62,2.89,1.49.79.86,1.41,1.93,1.86,3.21.45,1.27.78,2.68.98,4.23.21,1.55.34,3.06.39,4.53.06,1.48.05,2.86-.03,4.15-.08,1.29-.16,2.3-.25,3.04Z"/>
    <path class="cls-1" d="M307.84,47.45c-.26,1.66-1.06,3.2-2.38,4.63-1.32,1.42-2.88,2.63-4.68,3.64-1.8,1-3.67,1.75-5.61,2.24-1.94.49-3.67.63-5.2.41-2.62-.37-4.86-1.34-6.74-2.91-1.88-1.57-3.39-3.46-4.53-5.65-1.14-2.19-1.92-4.55-2.34-7.07-.42-2.52-.5-4.94-.21-7.25.3-2.46.98-5.04,2.05-7.76,1.06-2.71,2.48-5.16,4.24-7.33,1.77-2.17,3.88-3.89,6.34-5.16,2.46-1.27,5.25-1.69,8.35-1.25,1.76.25,3.4.78,4.92,1.57,1.52.8,2.79,1.8,3.82,3.01,1.03,1.21,1.79,2.58,2.29,4.11.5,1.53.61,3.18.33,4.94-.36,2.3-1.2,4.37-2.53,6.22-1.32,1.85-2.93,3.38-4.81,4.6-1.89,1.22-3.97,2.13-6.27,2.72-2.29.6-4.57.79-6.85.58,0,1.45.45,2.56,1.34,3.33.89.77,2.01,1.25,3.36,1.45,1,.14,2.01.04,3.03-.31,1.02-.35,2.03-.77,3.02-1.25.99-.48,1.97-.89,2.92-1.25.95-.36,1.88-.47,2.79-.33,1,.15,1.86.61,2.56,1.38.7.76.97,1.66.81,2.68ZM298.3,27.59c.09-.64,0-1.32-.25-2.06-.26-.74-.77-1.16-1.54-1.27-1.13-.16-2.11-.01-2.96.44-.85.46-1.59,1.08-2.21,1.87-.63.79-1.15,1.65-1.57,2.6-.41.94-.7,1.83-.87,2.66.73-.05,1.61-.13,2.63-.24,1.02-.11,2.01-.31,2.96-.6.95-.29,1.79-.71,2.52-1.25.73-.54,1.16-1.26,1.29-2.14Z"/>
  </g>
  <path class="cls-1" d="M15.84,72.65c56.66-8.04,113.97-11.55,171.18-9.59,34.34,1.41,68.74,4.98,102.14,13.4,1.75.44,2.81,2.21,2.37,3.96-.36,1.43-1.61,2.4-3.01,2.47-19.48.95-39,2.13-58.48,3.47-5.42.5-166.24,10.48-128.45,24.61,9.16,3.29,18.9,4.88,28.48,6.56-7.48-1.23-31.31-3.89-35.21-9.71-2.84-5.68,14.77-9.23,18.46-10.32,19.1-4.46,38.54-7.04,57.96-9.59,38.85-4.87,77.8-8.5,116.84-11.56,0,0-.57,6.45-.57,6.45-10.99-2.43-22.09-4.34-33.26-5.86-33.59-4.37-67.56-5.14-101.4-4.1-45.09,1.6-90.21,6.1-134.66,13.76-9.37,1.43-11.85-12.09-2.39-13.95h0Z"/>
</svg>