<?xml version="1.0" encoding="UTF-8"?>
<svg xmlns="http://www.w3.org/2000/svg" viewBox="0 0 1280 359.36">
  <defs>
    <style>
      .cls-1 {
        fill: #fff;
      }

      .cls-1, .cls-2, .cls-3, .cls-4, .cls-5, .cls-6, .cls-7, .cls-8, .cls-9 {
        stroke: #162041;
        stroke-linecap: round;
        stroke-linejoin: round;
        stroke-width: .63px;
      }

      .cls-2 {
        fill: #24d9cd;
      }

      .cls-10, .cls-4, .cls-11, .cls-12, .cls-13 {
        fill: #ffa9a3;
      }

      .cls-3, .cls-14 {
        fill: #ffe8e9;
      }

      .cls-15, .cls-5 {
        fill: none;
      }

      .cls-11 {
        opacity: .34;
      }

      .cls-11, .cls-16, .cls-12, .cls-13, .cls-17 {
        mix-blend-mode: multiply;
      }

      .cls-18 {
        isolation: isolate;
      }

      .cls-6 {
        fill: #c55eea;
      }

      .cls-7 {
        fill: #162041;
      }

      .cls-13 {
        opacity: .45;
      }

      .cls-17 {
        opacity: .3;
      }

      .cls-17, .cls-8 {
        fill: #ffa400;
      }

      .cls-9 {
        fill: #009974;
      }

      .cls-19 {
        opacity: .44;
      }
    </style>
  </defs>
  <g class="cls-18">
    <g id="Calque_1" data-name="Calque 1">
      <g>
        <g>
          <g>
            <g>
              <path class="cls-9" d="M1177.57,60.56c-5.34-.5-12.18-4.09-14.24-8.1-2.51-4.88-2.37-10.74-1.03-16.06,2.96-11.72,11.78-21.81,23-26.32-2.65,4.49-2.37,10.54.68,14.77-.27-7.31,4.73-14.11,11.19-17.54,6.46-3.43,14.11-3.93,21.38-3.17-2.47,3.06-3.82,7-3.77,10.94,3.18-4.91,9.47-7.05,15.31-6.81,5.84.24,11.39,2.48,16.8,4.68,5.41,2.21,10.96,4.45,16.8,4.7-3.72,6.48-7.5,13.03-12.74,18.36-5.24,5.33-12.19,9.37-19.65,9.58,2.92,2.57,6.36,4.57,10.04,5.83-2.38,4.5-4.8,9.05-8.2,12.84-3.4,3.79-7.93,6.81-12.99,7.37-5.06.56-10.59-1.78-12.87-6.33,1.16,4.58,3.69,8.8,7.18,11.98-4.26,2.79-8.59,5.62-13.44,7.14-4.86,1.52-10.4,1.6-14.81-.95-4.57-2.65-7.27-7.77-8.24-12.96-.61-3.27-.62-6.59-.41-9.92Z"/>
              <path class="cls-2" d="M1163.82,68.66c4.41-3.77,8.96-7.38,13.62-10.81-3.4-9.29-2.93-20.01,1.34-28.86-2.66,8.97-2.34,18.61.82,27.33,2.12-1.52,4.25-3.02,6.42-4.47-.01-.07-.04-.12-.04-.2,0-6.23,1.62-12.39,4.3-17.95,1.39-2.76,3.02-5.4,4.94-7.8,1.91-2.41,4.1-4.58,6.5-6.45-7.97,8.37-12.81,19.52-13.58,31.02,7.65-5.01,15.58-9.57,23.75-13.66-.03-.07-.07-.13-.09-.21-1.38-6.85,1.31-14.52,6.68-18.92-3.73,5.44-5.43,11.82-4.97,18.31,3.26-1.6,6.55-3.15,9.88-4.6.56-.25,1.11-.51,1.69-.73,6.97-2.99,14.08-5.63,21.33-7.94.71-.23.95.83.32,1.01-7,2-13.86,4.54-20.52,7.48,4.31,2.11,8.79,3.64,13.58,4.59-5.45.7-11.24-.58-15.91-3.54-8.52,3.91-16.73,8.51-24.54,13.71,7.18,5.89,16.55,8.99,25.92,8.52-9.7,1.93-20.3-.58-28.22-6.65-.07-.06-.12-.14-.18-.21-5.28,3.65-10.35,7.59-15.19,11.8,5.39,6.03,13.09,9.91,21.25,10.63-8.5.64-17.28-2.68-23.41-8.73-4.17,3.75-8.15,7.7-11.92,11.85-3.03,2.45-6.7-2-3.79-4.52Z"/>
            </g>
            <g>
              <path class="cls-6" d="M1136.15,60.41c-3.48.06-6.66,3.08-6.9,6.55-1.25-3.43-5.01-5.75-8.64-5.34-3.63.42-6.76,3.53-7.21,7.16-.17,1.43.09,2.88.67,4.19-2.13.02-4.26.85-5.68,2.45-2.75,3.13-2.24,8.56,1.06,11.11,2.69,2.08,6.76,1.89,9.44-.12-1.75,2.49-2.04,6.03-.47,8.67,1.96,3.3,6.54,4.74,10.04,3.15,3.49-1.59,5.42-5.99,4.22-9.64,2.67,2.8,7.36,3.39,10.64,1.35,3.29-2.04,4.82-6.51,3.49-10.14-1.33-3.63-5.39-6.04-9.22-5.48,3.42-.64,6.05-4.15,5.69-7.62s-3.64-6.37-7.12-6.3Z"/>
              <path class="cls-8" d="M1132.38,78.31c.04,2.01-1.1,4.03-2.89,4.97-2.01,1.06-4.68.67-6.3-.91s-2.08-4.24-1.08-6.28c2.28-4.62,9.33-3.59,10.2,1.48.04.25.06.49.07.74Z"/>
            </g>
            <g>
              <path class="cls-6" d="M331.79,179.82c-3.48.06-6.66,3.08-6.9,6.55-1.25-3.43-5.01-5.75-8.64-5.34-3.63.42-6.76,3.53-7.21,7.16-.17,1.43.09,2.88.67,4.19-2.13.02-4.26.85-5.68,2.45-2.75,3.13-2.24,8.56,1.06,11.11,2.69,2.08,6.76,1.89,9.44-.12-1.75,2.49-2.04,6.03-.47,8.67,1.96,3.3,6.54,4.74,10.04,3.15,3.49-1.59,5.42-5.99,4.22-9.64,2.67,2.8,7.36,3.39,10.64,1.35,3.29-2.04,4.82-6.51,3.49-10.14-1.33-3.63-5.39-6.04-9.22-5.48,3.42-.64,6.05-4.15,5.69-7.62s-3.64-6.37-7.12-6.3Z"/>
              <path class="cls-8" d="M328.03,197.72c.04,2.01-1.1,4.03-2.89,4.97-2.01,1.06-4.68.67-6.3-.91s-2.08-4.24-1.08-6.28c2.28-4.62,9.33-3.59,10.2,1.48.04.25.06.49.07.74Z"/>
            </g>
          </g>
          <g>
            <g class="cls-16">
              <circle class="cls-11" cx="903.5" cy="241.05" r="61.08" transform="translate(463.66 1066.25) rotate(-76.88)"/>
            </g>
            <g>
              <path class="cls-8" d="M1018.83,284.36c-8.68,1.68-11.8-26.53-13.49-35.29-1.69-8.76,1.29-8.82,4.85-9.51,3.56-.69,6.35-1.73,8.04,7.02,1.69,8.76,8.7,36.22.61,37.78Z"/>
              <path class="cls-7" d="M1007.62,262.32c-1.02-5.35-1.73-10.37-2.29-13.26-1.69-8.76,1.29-8.82,4.85-9.51,3.56-.69,6.35-1.73,8.04,7.02.56,2.89,1.69,7.82,2.68,13.18l-13.27,2.56Z"/>
              <g>
                <path class="cls-4" d="M980.53,238.01c4.52,23.4,16.91,19.64,32.5,16.63,15.6-3.01,28.49-4.14,23.98-27.53-4.52-23.4-11.67-62.72-40.33-57.19-25.48,4.92-20.67,44.69-16.15,68.09Z"/>
                <path class="cls-12" d="M980.54,238.01c4.51,23.39,16.9,19.65,32.5,16.64,14.04-2.71,25.88-3.91,24.8-21.18-5.84,7.07-13.6,12.04-22.65,13.79-12.52,2.42-25.02-1.79-34.88-10.5.06.42.15.85.22,1.25Z"/>
                <g class="cls-19">
                  <path class="cls-12" d="M1012.22,227.62c3.08,15.95,5.76,14.51,9.28,13.83,3.52-.68,6.54-.33,3.46-16.29-3.08-15.95-8.15-42.73-14.61-41.48-5.75,1.11-1.21,27.99,1.87,43.94Z"/>
                  <path class="cls-12" d="M990.35,231.84c3.08,15.95,5.76,14.51,9.28,13.83,3.52-.68,6.54-.33,3.46-16.29-3.08-15.95-8.15-42.73-14.61-41.48-5.75,1.11-1.21,27.99,1.87,43.94Z"/>
                </g>
              </g>
              <g>
                <g>
                  <path class="cls-7" d="M995.86,216.74c.17,1.35,1.06,2.5,2.17,3.3.07.07.15.12.22.17,2.43,1.64,5.61,1.81,8.48,1.27,1.91-.36,3.81-1.03,5.33-2.2.47-.36.89-.8,1.27-1.28,1.7-2.18,2.37-5.42-.13-7.32-2.1-1.62-4.01.58-5.86,1.48-2.21,1.07-4.7,1.59-7.15,1.28-1.45-.19-2.97.06-3.79,1-.46.53-.68,1.29-.54,2.32Z"/>
                  <path class="cls-4" d="M998.03,220.04c.07.07.15.12.22.17,2.43,1.64,5.61,1.81,8.48,1.27,1.91-.36,3.81-1.03,5.33-2.2.47-.36.89-.8,1.27-1.28-1.55-1.17-3.78-1.97-6.3-2.11-4.32-.23-8.03,1.57-9,4.16Z"/>
                </g>
                <g>
                  <path class="cls-14" d="M1024.62,213.12c-3.51.26-6.5-1.54-6.68-4.02-.18-2.48,2.51-4.69,6.02-4.95,3.51-.26,6.5,1.54,6.68,4.02.18,2.48-2.51,4.69-6.02,4.95Z"/>
                  <path class="cls-14" d="M986.3,218.94c-3.47.58-6.62-.93-7.03-3.38-.41-2.45,2.07-4.91,5.53-5.49,3.47-.58,6.62.93,7.03,3.38.41,2.45-2.07,4.91-5.53,5.49Z"/>
                  <g>
                    <g>
                      <g>
                        <path class="cls-1" d="M1003.55,201.78c-1-3.55.27-7.12,2.89-8.79.51-.34,1.08-.6,1.69-.77,3.71-1.04,7.69,1.52,8.89,5.77,1.19,4.23-.87,8.51-4.58,9.55-2.24.63-4.55-.04-6.28-1.6h-.02c-1.19-1.02-2.11-2.47-2.59-4.17Z"/>
                        <path class="cls-7" d="M1003.55,201.78c-1-3.55.27-7.12,2.89-8.79,2.18.63,3.96,2.3,4.6,4.58,1.01,3.59-1.19,7.31-4.89,8.37h-.02c-1.19-1.02-2.11-2.47-2.59-4.17Z"/>
                      </g>
                      <g>
                        <path class="cls-1" d="M989.29,204.67c-1-3.55.27-7.12,2.89-8.79.51-.34,1.08-.6,1.69-.77,3.71-1.04,7.69,1.52,8.89,5.77,1.19,4.23-.87,8.51-4.58,9.55-2.24.63-4.55-.04-6.28-1.6h-.02c-1.19-1.02-2.11-2.47-2.59-4.17Z"/>
                        <path class="cls-7" d="M989.29,204.67c-1-3.55.27-7.12,2.89-8.79,2.18.63,3.96,2.3,4.6,4.58,1.01,3.59-1.19,7.31-4.89,8.37h-.02c-1.19-1.02-2.11-2.47-2.59-4.17Z"/>
                      </g>
                    </g>
                    <path class="cls-5" d="M1015.89,189.32c-2.02-1.53-5.12-2.73-9.43-1.42"/>
                    <path class="cls-5" d="M993.79,188.27s-6.02-.51-8.21,7.47"/>
                  </g>
                </g>
              </g>
            </g>
            <g>
              <path class="cls-9" d="M899.88,206.48c-5.34-.5-12.18-4.09-14.24-8.1-2.51-4.88-2.37-10.74-1.03-16.06,2.96-11.72,11.78-21.81,23-26.32-2.65,4.49-2.37,10.54.68,14.77-.27-7.31,4.73-14.11,11.19-17.54,6.46-3.43,14.11-3.93,21.38-3.17-2.47,3.06-3.82,7-3.77,10.94,3.18-4.91,9.47-7.05,15.31-6.81,5.84.24,11.39,2.48,16.8,4.68s10.96,4.45,16.8,4.7c-3.72,6.48-7.5,13.03-12.74,18.36-5.24,5.33-12.19,9.37-19.65,9.58,2.92,2.57,6.36,4.57,10.04,5.83-2.38,4.5-4.8,9.05-8.2,12.84-3.4,3.79-7.93,6.81-12.99,7.37-5.06.56-10.59-1.78-12.87-6.33,1.16,4.58,3.69,8.8,7.18,11.98-4.26,2.79-8.59,5.62-13.44,7.14-4.86,1.52-10.4,1.6-14.81-.95-4.57-2.65-7.27-7.77-8.24-12.96-.61-3.27-.62-6.59-.41-9.92Z"/>
              <path class="cls-2" d="M886.13,214.58c4.41-3.77,8.96-7.38,13.62-10.81-3.4-9.29-2.93-20.01,1.34-28.86-2.66,8.97-2.34,18.61.82,27.33,2.12-1.52,4.25-3.02,6.42-4.47-.01-.07-.04-.12-.04-.2,0-6.23,1.62-12.39,4.3-17.95,1.39-2.76,3.02-5.4,4.94-7.8,1.91-2.41,4.1-4.58,6.5-6.45-7.97,8.37-12.81,19.52-13.58,31.02,7.65-5.01,15.58-9.57,23.75-13.66-.03-.07-.07-.13-.09-.21-1.38-6.85,1.31-14.52,6.68-18.92-3.73,5.44-5.43,11.82-4.97,18.31,3.26-1.6,6.55-3.15,9.88-4.6.56-.25,1.11-.51,1.69-.73,6.97-2.99,14.08-5.63,21.33-7.94.71-.23.95.83.32,1.01-7,2-13.86,4.54-20.52,7.48,4.31,2.11,8.79,3.64,13.58,4.59-5.45.7-11.24-.58-15.91-3.54-8.52,3.91-16.73,8.51-24.54,13.71,7.18,5.89,16.55,8.99,25.92,8.52-9.7,1.93-20.3-.58-28.22-6.65-.07-.06-.12-.14-.18-.21-5.28,3.65-10.35,7.59-15.19,11.8,5.39,6.03,13.09,9.91,21.25,10.63-8.5.64-17.28-2.68-23.41-8.73-4.17,3.75-8.15,7.7-11.92,11.85-3.03,2.45-6.7-2-3.79-4.52Z"/>
            </g>
            <g>
              <path class="cls-6" d="M858.45,206.32c-3.48.06-6.66,3.08-6.9,6.55-1.25-3.43-5.01-5.75-8.64-5.34-3.63.42-6.76,3.53-7.21,7.16-.17,1.43.09,2.88.67,4.19-2.13.02-4.26.85-5.68,2.45-2.75,3.13-2.24,8.56,1.06,11.11,2.69,2.08,6.76,1.89,9.44-.12-1.75,2.49-2.04,6.03-.47,8.67,1.96,3.3,6.54,4.74,10.04,3.15,3.49-1.59,5.42-5.99,4.22-9.64,2.67,2.8,7.36,3.39,10.64,1.35,3.29-2.04,4.82-6.51,3.49-10.14-1.33-3.63-5.39-6.04-9.22-5.48,3.42-.64,6.05-4.15,5.69-7.62-.36-3.46-3.64-6.37-7.12-6.3Z"/>
              <path class="cls-8" d="M854.69,224.22c.04,2.01-1.1,4.03-2.89,4.97-2.01,1.06-4.68.67-6.3-.91-1.63-1.58-2.08-4.24-1.08-6.28,2.28-4.62,9.33-3.59,10.2,1.48.04.25.07.49.07.74Z"/>
            </g>
            <g>
              <path class="cls-6" d="M1084.54,204.86c-2.03-1.29-5.02-.75-6.5,1.17.6-2.47-.68-5.26-2.94-6.4-2.25-1.14-5.26-.53-6.91,1.41-.65.76-1.05,1.7-1.22,2.69-1.24-.8-2.78-1.14-4.22-.74-2.79.77-4.58,4.12-3.66,6.86.75,2.23,3.18,3.68,5.5,3.53-1.97.78-3.49,2.72-3.61,4.86-.14,2.67,1.95,5.25,4.58,5.66,2.63.41,5.43-1.41,6.14-3.99.46,2.65,2.94,4.78,5.62,4.85,2.68.07,5.28-1.94,5.91-4.56s-.79-5.57-3.22-6.7c2.22.94,5.09-.1,6.21-2.25s.35-5.09-1.69-6.38Z"/>
              <path class="cls-8" d="M1075.49,213.82c-.75,1.18-2.18,1.92-3.58,1.78-1.56-.15-2.96-1.4-3.28-2.94s.43-3.26,1.79-4.06c3.09-1.81,6.77,1.48,5.32,4.75-.07.16-.15.31-.24.46Z"/>
            </g>
            <g>
              <path class="cls-8" d="M1065.41,229.87c-1.45-.92-3.57-.54-4.62.83.42-1.76-.49-3.74-2.09-4.55-1.6-.81-3.74-.38-4.91,1-.46.54-.75,1.21-.87,1.91-.88-.57-1.98-.81-3-.53-1.99.54-3.26,2.93-2.6,4.88.54,1.59,2.26,2.62,3.91,2.51-1.4.55-2.48,1.94-2.56,3.45-.1,1.9,1.39,3.73,3.26,4.03,1.87.29,3.86-1,4.36-2.83.33,1.88,2.09,3.4,4,3.45,1.91.05,3.76-1.38,4.2-3.24.45-1.86-.56-3.96-2.29-4.77,1.58.67,3.62-.07,4.42-1.6.8-1.53.25-3.62-1.2-4.54Z"/>
              <path class="cls-6" d="M1058.97,236.24c-.53.84-1.55,1.36-2.54,1.27-1.11-.11-2.1-.99-2.34-2.09s.3-2.32,1.27-2.88c2.2-1.29,4.81,1.05,3.78,3.38-.05.11-.11.22-.17.33Z"/>
            </g>
          </g>
          <g>
            <g class="cls-16">
              <circle class="cls-11" cx="613.76" cy="237.51" r="58.12" transform="translate(241.59 780.28) rotate(-76.72)"/>
              <circle class="cls-11" cx="750.96" cy="235.12" r="61.08" transform="translate(53.69 599.87) rotate(-45)"/>
              <circle class="cls-11" cx="625.81" cy="95.13" r="61.08" transform="translate(222.75 583.22) rotate(-59.09)"/>
            </g>
            <g>
              <circle class="cls-8" cx="618.86" cy="174.33" r="47.93" transform="translate(136.1 598.97) rotate(-57.07)"/>
              <path class="cls-17" d="M663.85,190.91c-5.9,15.95-20.12,28.25-38.13,30.86-26.21,3.79-50.51-14.38-54.29-40.59-1.73-11.95,1.11-23.48,7.22-32.88-2.68,7.24-3.64,15.24-2.45,23.42,3.78,26.19,28.08,44.35,54.29,40.57,14.24-2.06,26.11-10.19,33.37-21.38Z"/>
              <g>
                <path class="cls-8" d="M683.32,167.16c-5.6.7-12.19-.83-12.57-3.85-.38-3.02,5.6-6.38,11.2-7.08s8.7,1.51,9.08,4.53c.38,3.02-2.11,5.69-7.71,6.4Z"/>
                <path class="cls-8" d="M669.27,215.1c-4.46-3.46-8.04-9.21-6.17-11.61,1.87-2.4,8.47-.55,12.93,2.91,4.46,3.46,5.08,7.22,3.22,9.63-1.87,2.4-5.52,2.54-9.97-.93Z"/>
              </g>
              <g>
                <path class="cls-4" d="M668.36,142.44c-2.63,1.89-6.36,2.92-7.38,1.5-1.02-1.42,1.07-4.74,3.7-6.63s4.79-1.62,5.81-.2.5,3.44-2.13,5.33Z"/>
                <path class="cls-4" d="M676.17,187.05c-3.19-.52-6.56-2.44-6.28-4.16s4.11-2.59,7.3-2.07,4.53,2.25,4.25,3.97-2.08,2.78-5.27,2.26Z"/>
              </g>
            </g>
            <g>
              <path class="cls-8" d="M743.85,182.75c-10.74,2.07-14.61-32.85-16.7-43.69-2.09-10.84,1.6-10.92,6-11.77,4.4-.85,7.86-2.15,9.95,8.69,2.09,10.84,10.77,44.83.76,46.76Z"/>
              <path class="cls-7" d="M729.98,155.48c-1.26-6.63-2.15-12.83-2.84-16.41-2.09-10.84,1.59-10.92,6-11.77,4.4-.85,7.86-2.15,9.95,8.69.69,3.58,2.1,9.68,3.31,16.32l-16.42,3.17Z"/>
              <g>
                <path class="cls-4" d="M696.44,125.38c5.59,28.96,20.93,24.31,40.23,20.59,19.31-3.73,35.27-5.12,29.68-34.08-5.59-28.96-14.44-77.64-49.93-70.79-31.54,6.09-25.58,55.33-19.99,84.29Z"/>
                <path class="cls-12" d="M696.45,125.37c5.59,28.95,20.92,24.33,40.24,20.6,17.37-3.35,32.04-4.84,30.7-26.22-7.22,8.75-16.83,14.91-28.03,17.07-15.5,2.99-30.98-2.22-43.18-13,.08.53.18,1.05.28,1.55Z"/>
                <g class="cls-19">
                  <path class="cls-12" d="M735.67,112.52c3.81,19.75,7.13,17.96,11.48,17.12,4.36-.84,8.1-.41,4.29-20.16-3.81-19.75-10.09-52.89-18.09-51.35-7.11,1.37-1.49,34.64,2.32,54.39Z"/>
                  <path class="cls-12" d="M708.6,117.75c3.81,19.75,7.13,17.96,11.48,17.12,4.36-.84,8.1-.41,4.29-20.16-3.81-19.75-10.09-52.89-18.09-51.35-7.11,1.37-1.49,34.64,2.32,54.39Z"/>
                </g>
              </g>
              <g>
                <g>
                  <path class="cls-7" d="M715.42,99.05c.21,1.67,1.32,3.1,2.69,4.08.09.08.18.14.27.2,3.01,2.03,6.94,2.24,10.49,1.57,2.36-.44,4.71-1.27,6.6-2.73.58-.44,1.1-.99,1.57-1.59,2.1-2.7,2.93-6.71-.16-9.07-2.59-2-4.97.72-7.25,1.84-2.73,1.32-5.81,1.97-8.86,1.58-1.8-.23-3.68.07-4.69,1.23-.57.65-.85,1.59-.67,2.88Z"/>
                  <path class="cls-4" d="M718.11,103.13c.09.08.18.14.27.2,3.01,2.03,6.94,2.24,10.49,1.57,2.36-.44,4.71-1.27,6.6-2.73.58-.44,1.1-.99,1.57-1.59-1.92-1.45-4.68-2.44-7.79-2.61-5.35-.29-9.94,1.94-11.14,5.15Z"/>
                </g>
                <g>
                  <path class="cls-14" d="M751.02,94.57c-4.34.32-8.05-1.91-8.27-4.97-.23-3.07,3.11-5.81,7.45-6.13,4.34-.32,8.05,1.91,8.27,4.97.23,3.07-3.11,5.81-7.45,6.13Z"/>
                  <path class="cls-14" d="M703.58,101.78c-4.29.72-8.19-1.15-8.7-4.18-.51-3.03,2.56-6.07,6.85-6.8,4.29-.72,8.19,1.15,8.7,4.18s-2.56,6.07-6.85,6.8Z"/>
                  <g>
                    <g>
                      <g>
                        <path class="cls-1" d="M724.94,80.53c-1.23-4.39.33-8.81,3.58-10.88.64-.42,1.33-.74,2.09-.95,4.59-1.29,9.52,1.88,11,7.14,1.47,5.23-1.08,10.54-5.67,11.83-2.77.78-5.63-.05-7.77-1.98h-.03c-1.48-1.27-2.61-3.06-3.2-5.16Z"/>
                        <path class="cls-7" d="M724.94,80.53c-1.23-4.39.33-8.81,3.58-10.88,2.69.78,4.9,2.85,5.7,5.67,1.25,4.45-1.47,9.05-6.05,10.36h-.03c-1.48-1.27-2.61-3.06-3.2-5.16Z"/>
                      </g>
                      <g>
                        <path class="cls-1" d="M707.29,84.11c-1.23-4.39.33-8.81,3.58-10.88.64-.42,1.33-.74,2.09-.95,4.59-1.29,9.52,1.88,11,7.14,1.47,5.23-1.08,10.54-5.67,11.83-2.77.78-5.63-.05-7.77-1.98h-.03c-1.48-1.27-2.61-3.06-3.2-5.16Z"/>
                        <path class="cls-7" d="M707.29,84.11c-1.23-4.39.33-8.81,3.58-10.88,2.69.78,4.9,2.85,5.7,5.67,1.25,4.45-1.47,9.05-6.05,10.36h-.03c-1.48-1.27-2.61-3.06-3.2-5.16Z"/>
                      </g>
                    </g>
                    <path class="cls-5" d="M740.22,65.1c-2.5-1.89-6.34-3.38-11.67-1.76"/>
                    <path class="cls-5" d="M712.86,63.81s-7.46-.63-10.16,9.24"/>
                  </g>
                </g>
              </g>
            </g>
            <g>
              <path class="cls-9" d="M622.19,60.56c-5.34-.5-12.18-4.09-14.24-8.1-2.51-4.88-2.37-10.74-1.03-16.06,2.96-11.72,11.78-21.81,23-26.32-2.65,4.49-2.37,10.54.68,14.77-.27-7.31,4.73-14.11,11.19-17.54,6.46-3.43,14.11-3.93,21.38-3.17-2.47,3.06-3.82,7-3.77,10.94,3.18-4.91,9.47-7.05,15.31-6.81,5.84.24,11.39,2.48,16.8,4.68,5.41,2.21,10.96,4.45,16.8,4.7-3.72,6.48-7.5,13.03-12.74,18.36-5.24,5.33-12.19,9.37-19.65,9.58,2.92,2.57,6.36,4.57,10.04,5.83-2.38,4.5-4.8,9.05-8.2,12.84-3.4,3.79-7.93,6.81-12.99,7.37-5.06.56-10.59-1.78-12.87-6.33,1.16,4.58,3.69,8.8,7.18,11.98-4.26,2.79-8.59,5.62-13.44,7.14-4.86,1.52-10.4,1.6-14.81-.95-4.57-2.65-7.27-7.77-8.24-12.96-.61-3.27-.62-6.59-.41-9.92Z"/>
              <path class="cls-2" d="M608.44,68.66c4.41-3.77,8.96-7.38,13.62-10.81-3.4-9.29-2.93-20.01,1.34-28.86-2.66,8.97-2.34,18.61.82,27.33,2.12-1.52,4.25-3.02,6.42-4.47-.01-.07-.04-.12-.04-.2,0-6.23,1.62-12.39,4.3-17.95,1.39-2.76,3.02-5.4,4.94-7.8,1.91-2.41,4.1-4.58,6.5-6.45-7.97,8.37-12.81,19.52-13.58,31.02,7.65-5.01,15.58-9.57,23.75-13.66-.03-.07-.07-.13-.09-.21-1.38-6.85,1.31-14.52,6.68-18.92-3.73,5.44-5.43,11.82-4.97,18.31,3.26-1.6,6.55-3.15,9.88-4.6.56-.25,1.11-.51,1.69-.73,6.97-2.99,14.08-5.63,21.33-7.94.71-.23.95.83.32,1.01-7,2-13.86,4.54-20.52,7.48,4.31,2.11,8.79,3.64,13.58,4.59-5.45.7-11.24-.58-15.91-3.54-8.52,3.91-16.73,8.51-24.54,13.71,7.18,5.89,16.55,8.99,25.92,8.52-9.7,1.93-20.3-.58-28.22-6.65-.07-.06-.12-.14-.18-.21-5.28,3.65-10.35,7.59-15.19,11.8,5.39,6.03,13.09,9.91,21.25,10.63-8.5.64-17.28-2.68-23.41-8.73-4.17,3.75-8.15,7.7-11.92,11.85-3.03,2.45-6.7-2-3.79-4.52Z"/>
            </g>
            <g>
              <path class="cls-9" d="M806.39,181.78c3.11,3.98,9.42,7.58,13.65,7.18,5.14-.49,9.72-3.57,13.25-7.34,7.79-8.3,11.31-20.41,9.19-31.59-2.21,4.38-7.15,7.23-12.05,6.95,5.93-3.49,8.79-10.91,8.22-17.77-.56-6.86-4.04-13.18-8.34-18.56-1.18,3.51-3.61,6.58-6.76,8.53,2.27-5.01.79-11.09-2.37-15.59-3.15-4.51-7.74-7.77-12.24-10.94-4.5-3.17-9.09-6.43-12.25-10.93-3.25,6.24-6.52,12.56-8.09,19.42-1.56,6.86-1.25,14.42,2.38,20.44-3.52-1.01-6.85-2.72-9.72-5-2.36,4.17-4.73,8.4-6.01,13.01-1.28,4.62-1.37,9.74.75,14.03,2.13,4.29,6.79,7.5,11.55,6.99-4.22,1.4-8.85,1.54-13.14.38-.05,4.79-.09,9.66,1.16,14.28,1.26,4.62,4.01,9.06,8.27,11.25,4.42,2.28,9.85,1.82,14.46-.04,2.9-1.17,5.54-2.85,8.07-4.7Z"/>
              <path class="cls-2" d="M806.95,196.78c.75-5.41,1.3-10.84,1.66-16.29,9.09-2.02,17.35-7.83,22.2-15.71-5.76,6.66-13.57,11.3-22.08,13.21.13-2.45.23-4.9.29-7.35.06-.02.12-.03.18-.07,4.94-3.16,9-7.58,12.05-12.52,1.49-2.5,2.75-5.13,3.68-7.87.94-2.74,1.55-5.57,1.81-8.42-2.59,10.57-8.97,20.06-17.7,26.51.09-8.61-.32-17.21-1.22-25.76.07,0,.14,0,.21-.04,6.13-2.38,10.85-8.41,11.6-14.9-2.42,5.72-6.62,10.3-11.99,13.23-.39-3.4-.82-6.79-1.37-10.17-.08-.57-.16-1.14-.28-1.71-1.17-7.05-2.68-14.02-4.54-20.94-.18-.68-1.15-.33-.96.26,1.97,6.57,3.44,13.29,4.49,20.06-3.86-2.35-7.34-5.13-10.53-8.43,2.21,4.68,6.17,8.62,10.88,10.81,1.22,8.74,1.75,17.58,1.58,26.41-8.31-2.7-15.53-8.55-19.91-16.22,3.39,8.67,10.76,15.8,19.59,18.99.08.03.17.02.25.04-.21,6.04-.77,12.06-1.65,18.03-7.51-1.22-14.5-5.35-19.22-11.45,3.81,7.07,10.89,12.34,18.8,14.12-.86,5.21-1.97,10.37-3.34,15.46-.41,3.64,4.98,4.3,5.5.71Z"/>
            </g>
            <g>
              <g>
                <path class="cls-3" d="M703.48,208.94l10.18-.65c-.23-1.13-.45-2.29-.63-3.53-1.04-7.35-.49-13.51,1.23-13.76,1.72-.24,3.96,5.52,5,12.87.07.47.11.92.16,1.38.04-.15.07-.3.11-.45,1.86-7.19,4.74-12.66,6.42-12.23,1.68.44,1.54,6.62-.33,13.81-.1.4-.22.77-.33,1.16h0c-7.5,26.97-4.4,38.09,7.91,35.47l-20.11,24.12s-27.4-9.55-9.63-58.19Z"/>
                <g>
                  <path class="cls-3" d="M701.48,207.26c-.68,2.61.26,5.11,2.1,5.59s2.84-1.52,3.52-4.13c.68-2.61.77-4.84-1.06-5.32s-3.87,1.25-4.55,3.86Z"/>
                  <path class="cls-3" d="M706.31,208.37c-.68,2.61.26,5.11,2.1,5.59s2.84-1.52,3.52-4.13c.68-2.61.77-4.84-1.06-5.32-1.84-.48-3.87,1.25-4.55,3.86Z"/>
                </g>
                <path class="cls-3" d="M718.72,212.01s-1.4-1.99-3.16-3.68c-3.02-2.9-7.86.53-6.07,4.32.52,1.1,1.45,2.29,2.96,3.54,0,0-2.4,1.24-3.19,4.56"/>
              </g>
              <g>
                <g>
                  <path class="cls-9" d="M803.15,302.9c-42.85,18.75-79.23,9.16-109.23-28.45-1.12-1.4-1.38-3.39-.49-4.94,1.21-2.12,3.22-3.65,6.14-4.51,28.69,33.95,63.11,42.9,103.28,26.57,1.85,2.12,2.9,4.43,3.04,6.95.11,1.87-1.02,3.63-2.74,4.38Z"/>
                  <path class="cls-2" d="M802.85,291.57c-40.17,16.32-74.59,7.37-103.28-26.57l4.68-4.83c27.2,29.7,59.35,37.64,96.52,23.63l2.08,7.77Z"/>
                  <path class="cls-4" d="M800.77,283.8c-37.17,14.01-69.32,6.07-96.52-23.63l70.72-72.7,25.8,96.33Z"/>
                  <path class="cls-12" d="M800.77,283.8c-37.17,14.01-69.32,6.07-96.52-23.63l70.72-72.7,25.8,96.33Z"/>
                  <path class="cls-13" d="M800.76,283.81c-34.09,12.85-63.98,7.23-89.67-16.72,6.71,3.84,14.09,6.86,21.99,8.91,22.7,5.89,45.42,2.59,63.58-7.47l4.1,15.29Z"/>
                </g>
                <g>
                  <path class="cls-7" d="M781.46,277.88c-.35-3.45.69-7.47,2.55-7.66,1.86-.19,3.83,3.53,4.18,6.98.35,3.45-1.06,5.32-2.92,5.5-1.86.19-3.46-1.38-3.81-4.83Z"/>
                  <path class="cls-7" d="M772.51,225.45c-.35-3.45.69-7.47,2.55-7.66,1.86-.19,3.83,3.53,4.18,6.98.35,3.45-1.06,5.32-2.92,5.5-1.86.19-3.46-1.38-3.81-4.83Z"/>
                  <path class="cls-7" d="M747.7,275.96c.77-3.38,3.05-6.86,4.87-6.44,1.82.42,2.5,4.57,1.73,7.95-.77,3.38-2.71,4.7-4.53,4.28-1.82-.42-2.84-2.41-2.07-5.79Z"/>
                  <path class="cls-7" d="M737.78,263.18c1.36-3.19,4.22-6.21,5.93-5.47,1.72.73,1.65,4.94.29,8.13-1.36,3.19-3.5,4.14-5.21,3.41-1.72-.73-2.36-2.88-1-6.07Z"/>
                  <path class="cls-7" d="M765.99,206.94c1.08-3.29,3.67-6.54,5.44-5.96,1.77.58,2.07,4.78.98,8.07s-3.13,4.43-4.9,3.84-2.6-2.67-1.52-5.96Z"/>
                  <path class="cls-7" d="M766.24,270.76c.33-3.45,2.12-7.2,3.98-7.02,1.86.18,3.07,4.21,2.75,7.66-.33,3.45-2.07,5.01-3.93,4.84-1.86-.18-3.13-2.02-2.8-5.47Z"/>
                  <path class="cls-7" d="M719.99,259.78c1.93-2.88,5.3-5.31,6.85-4.27s.69,5.16-1.24,8.04-4.21,3.42-5.76,2.37-1.78-3.27.15-6.15Z"/>
                  <path class="cls-7" d="M750.28,218.83c1.93-2.88,5.3-5.31,6.85-4.27s.69,5.16-1.24,8.04c-1.93,2.88-4.21,3.42-5.76,2.37s-1.78-3.27.15-6.15Z"/>
                </g>
                <g>
                  <g>
                    <g>
                      <path class="cls-1" d="M760.98,240.57c.63-4.09,3.58-7.15,7.04-7.63.68-.11,1.38-.11,2.08,0,4.27.66,7.15,5.13,6.39,10.03-.75,4.87-4.85,8.29-9.12,7.63-2.58-.4-4.62-2.15-5.67-4.55h-.03c-.74-1.61-1-3.52-.7-5.47Z"/>
                      <path class="cls-7" d="M760.98,240.57c.63-4.09,3.58-7.15,7.04-7.63,1.93,1.66,2.98,4.19,2.57,6.82-.64,4.14-4.61,6.91-8.89,6.28h-.03c-.74-1.61-1-3.52-.7-5.47Z"/>
                    </g>
                    <g>
                      <path class="cls-1" d="M745.07,236.89c.63-4.09,3.58-7.15,7.04-7.63.68-.11,1.38-.11,2.08,0,4.27.66,7.15,5.13,6.39,10.03-.75,4.87-4.85,8.29-9.12,7.63-2.58-.4-4.62-2.15-5.67-4.55h-.03c-.74-1.61-1-3.52-.7-5.47Z"/>
                      <path class="cls-7" d="M745.07,236.89c.63-4.09,3.58-7.15,7.04-7.63,1.93,1.66,2.98,4.19,2.57,6.82-.64,4.14-4.61,6.91-8.89,6.28h-.03c-.74-1.61-1-3.52-.7-5.47Z"/>
                    </g>
                  </g>
                  <path class="cls-5" d="M763.81,252.77s-7.31,7.02-14.37-.82"/>
                  <g>
                    <path class="cls-10" d="M780.4,260.67c-3.82-.99-6.35-3.98-5.65-6.68.7-2.7,4.37-4.08,8.19-3.09,3.82.99,6.35,3.98,5.65,6.68-.7,2.7-4.37,4.08-8.19,3.09Z"/>
                    <path class="cls-10" d="M733.74,250.48c-3.67-1.45-5.82-4.73-4.8-7.32,1.02-2.59,4.83-3.52,8.5-2.07,3.67,1.45,5.82,4.73,4.8,7.32-1.02,2.59-4.83,3.52-8.5,2.07Z"/>
                  </g>
                </g>
                <path class="cls-7" d="M803.15,302.91c-27.12,11.86-51.66,12.37-73.61,1.61,1.97.67,3.96,1.29,6.01,1.82,27.06,7.02,53.67-1.65,65.96-19.75l1.34,5c1.86,2.13,2.91,4.42,3.05,6.95.11,1.87-1.04,3.61-2.74,4.38Z"/>
              </g>
              <g>
                <g>
                  <path class="cls-8" d="M732.41,278.38c-9.59,18.84-2.1,41.85,16.74,51.43,18.84,9.59,41.84,2.1,51.43-16.74,7.43-14.59,4.59-31.72-5.82-43.15-3.01-3.29-6.67-6.12-10.92-8.28-4.24-2.16-8.69-3.46-13.12-3.95-15.37-1.69-30.89,6.1-38.31,20.69Z"/>
                  <ellipse class="cls-1" cx="766.5" cy="295.73" rx="38.24" ry="27.2" transform="translate(155.29 844.73) rotate(-63.03)"/>
                  <path class="cls-8" d="M755.67,290.22c-9.58,18.82-12.5,36.55-6.52,39.59,5.98,3.04,18.59-9.75,28.17-28.58,9.58-18.82,12.5-36.55,6.52-39.59-5.98-3.04-18.59,9.75-28.17,28.58Z"/>
                </g>
                <path class="cls-6" d="M770.72,257.69c.11.61.38,1.29.74,2,.77,1.39,2.09,2.93,3.82,4.35,1.54,1.3,3.4,2.52,5.51,3.6,2.11,1.07,4.19,1.86,6.15,2.34,2.17.55,4.18.72,5.77.52.78-.12,1.5-.31,2.05-.58-3.01-3.29-6.67-6.12-10.92-8.28-4.24-2.16-8.69-3.46-13.12-3.95Z"/>
              </g>
              <g>
                <g>
                  <path class="cls-8" d="M374.2,181.71c-9.59,18.84-2.1,41.85,16.74,51.43,18.84,9.59,41.84,2.1,51.43-16.74,7.43-14.59,4.59-31.72-5.82-43.15-3.01-3.29-6.67-6.12-10.92-8.28-4.24-2.16-8.69-3.46-13.12-3.95-15.37-1.69-30.89,6.1-38.31,20.69Z"/>
                  <ellipse class="cls-1" cx="408.28" cy="199.06" rx="38.24" ry="27.2" transform="translate(45.7 472.65) rotate(-63.03)"/>
                  <path class="cls-8" d="M397.46,193.55c-9.58,18.82-12.5,36.55-6.52,39.59s18.59-9.75,28.17-28.58c9.58-18.82,12.5-36.55,6.52-39.59s-18.59,9.75-28.17,28.58Z"/>
                </g>
                <path class="cls-6" d="M412.51,161.02c.11.61.38,1.29.74,2,.77,1.39,2.09,2.93,3.82,4.35,1.54,1.3,3.4,2.52,5.51,3.6,2.11,1.07,4.19,1.86,6.15,2.34,2.17.55,4.18.72,5.77.52.78-.12,1.5-.31,2.05-.58-3.01-3.29-6.67-6.12-10.92-8.28-4.24-2.16-8.69-3.46-13.12-3.95Z"/>
              </g>
              <g>
                <path class="cls-3" d="M759.73,301.71c-.69-.17-1.9-.63-2.11-1.78-.03-.16-.17-2.39,2.16-2.5,1.36-.07,3.29.26,5.08.67,1.14.26,3.58,1.06,4.7.57,1.36-.59,1.15-2.56-1-3.09,0,0-3.97-.81-2.95-3.19.77-2.63,5.93-.9,11.5,1.05,10.43-4.95,16.87-10.81,19.09-17.64.88-2.71.86-5.64.14-8.4l-1.59-6.03s19.86,11.57,13.46,30.84c-.84,2.53-2.15,4.87-3.71,7.04-4.78,6.62-12.84,14.53-35.17,15.87-2.5.15-9.12-.29-8.85-2.72.08-.72.45-1.48,2.08-1.79,0,0-6.49.43-4.83-4.4,0,0-2.71-.48-2.21-2.91,0,0,.32-2.49,4.22-1.58Z"/>
                <path class="cls-5" d="M759.73,301.71c1.93.64,4.43,1.29,6.88,1.7"/>
              </g>
            </g>
            <g>
              <path class="cls-8" d="M815.86,209.7c-1.83-1.17-4.53-.68-5.87,1.06.54-2.23-.62-4.74-2.65-5.77-2.03-1.03-4.75-.48-6.23,1.27-.59.69-.95,1.54-1.1,2.42-1.12-.72-2.51-1.03-3.81-.67-2.52.69-4.13,3.72-3.3,6.19.68,2.02,2.87,3.32,4.96,3.19-1.77.7-3.15,2.46-3.25,4.38-.13,2.4,1.76,4.74,4.13,5.11,2.37.37,4.9-1.27,5.54-3.6.42,2.39,2.65,4.31,5.07,4.37,2.42.06,4.77-1.75,5.33-4.11.56-2.36-.71-5.02-2.9-6.05,2,.85,4.59-.09,5.6-2.03,1.01-1.94.31-4.59-1.52-5.76Z"/>
              <path class="cls-6" d="M807.7,217.78c-.68,1.07-1.97,1.73-3.23,1.61-1.41-.14-2.67-1.26-2.96-2.65s.39-2.94,1.61-3.66c2.79-1.64,6.1,1.33,4.8,4.29-.06.14-.14.28-.22.41Z"/>
            </g>
            <g>
              <path class="cls-6" d="M806.85,58.94c-2.03-1.29-5.02-.75-6.5,1.17.6-2.47-.68-5.26-2.94-6.4-2.25-1.14-5.26-.53-6.91,1.41-.65.76-1.05,1.7-1.22,2.69-1.24-.8-2.78-1.14-4.22-.74-2.79.77-4.58,4.12-3.66,6.86.75,2.23,3.18,3.68,5.5,3.53-1.97.78-3.49,2.72-3.61,4.86-.14,2.67,1.95,5.25,4.58,5.66,2.63.41,5.43-1.41,6.14-3.99.46,2.65,2.94,4.78,5.62,4.85,2.68.07,5.28-1.94,5.91-4.56.63-2.62-.79-5.57-3.22-6.7,2.22.94,5.09-.1,6.21-2.25,1.12-2.15.35-5.09-1.69-6.38Z"/>
              <path class="cls-8" d="M797.8,67.91c-.75,1.18-2.18,1.92-3.58,1.78-1.56-.15-2.96-1.4-3.28-2.94-.33-1.54.43-3.26,1.79-4.06,3.09-1.81,6.77,1.48,5.32,4.75-.07.16-.15.31-.24.46Z"/>
            </g>
            <g>
              <path class="cls-6" d="M679.23,258.15c-2.03-1.29-5.02-.75-6.5,1.17.6-2.47-.68-5.26-2.94-6.4-2.25-1.14-5.26-.53-6.91,1.41-.65.76-1.05,1.7-1.22,2.69-1.24-.8-2.78-1.14-4.22-.74-2.79.77-4.58,4.12-3.66,6.86.75,2.23,3.18,3.68,5.5,3.53-1.97.78-3.49,2.72-3.61,4.86-.14,2.67,1.95,5.25,4.58,5.66,2.63.41,5.43-1.41,6.14-3.99.46,2.65,2.94,4.78,5.62,4.85,2.68.07,5.28-1.94,5.91-4.56s-.79-5.57-3.22-6.7c2.22.94,5.09-.1,6.21-2.25,1.12-2.15.35-5.09-1.69-6.38Z"/>
              <path class="cls-8" d="M670.18,267.11c-.75,1.18-2.18,1.92-3.58,1.78-1.56-.15-2.96-1.4-3.28-2.94-.33-1.54.43-3.26,1.79-4.06,3.09-1.81,6.77,1.48,5.32,4.75-.07.16-.15.31-.24.46Z"/>
            </g>
            <g>
              <path class="cls-8" d="M787.72,83.95c-1.45-.92-3.57-.54-4.62.83.42-1.76-.49-3.74-2.09-4.55-1.6-.81-3.74-.38-4.91,1-.46.54-.75,1.21-.87,1.91-.88-.57-1.98-.81-3-.53-1.99.54-3.26,2.93-2.6,4.88.54,1.59,2.26,2.62,3.91,2.51-1.4.55-2.48,1.94-2.56,3.45-.1,1.9,1.39,3.73,3.26,4.03,1.87.29,3.86-1,4.36-2.83.33,1.88,2.09,3.4,4,3.45,1.91.05,3.76-1.38,4.2-3.24.45-1.86-.56-3.96-2.29-4.77,1.58.67,3.62-.07,4.42-1.6s.25-3.62-1.2-4.54Z"/>
              <path class="cls-6" d="M781.28,90.33c-.53.84-1.55,1.36-2.54,1.27-1.11-.11-2.1-.99-2.34-2.09-.23-1.09.3-2.32,1.27-2.88,2.2-1.29,4.81,1.05,3.78,3.38-.05.11-.11.22-.17.33Z"/>
            </g>
          </g>
          <g>
            <g class="cls-16">
              <circle class="cls-11" cx="1169.14" cy="-54.32" r="58.12" transform="translate(380.84 810.8) rotate(-45)"/>
            </g>
            <g>
              <path class="cls-6" d="M1149.27,1.47c-1.45-.92-3.57-.54-4.62.83.42-1.76-.49-3.74-2.09-4.55-1.6-.81-3.74-.38-4.91,1-.46.54-.75,1.21-.87,1.91-.88-.57-1.98-.81-3-.53-1.99.54-3.26,2.93-2.6,4.88.54,1.59,2.26,2.62,3.91,2.51-1.4.55-2.48,1.94-2.56,3.45-.1,1.9,1.39,3.73,3.26,4.03,1.87.29,3.86-1,4.36-2.83.33,1.88,2.09,3.4,4,3.45s3.76-1.38,4.2-3.24c.45-1.86-.56-3.96-2.29-4.77,1.58.67,3.62-.07,4.42-1.6.8-1.53.25-3.62-1.2-4.54Z"/>
              <path class="cls-8" d="M1142.83,7.84c-.53.84-1.55,1.36-2.54,1.27-1.11-.11-2.1-.99-2.34-2.09-.23-1.09.3-2.32,1.27-2.88,2.2-1.29,4.81,1.05,3.78,3.38-.05.11-.11.22-.17.33Z"/>
            </g>
          </g>
          <g>
            <g class="cls-16">
              <circle class="cls-11" cx="891.45" cy="91.6" r="58.12" transform="translate(658.24 956.86) rotate(-80.78)"/>
              <circle class="cls-11" cx="1028.65" cy="89.21" r="61.08"/>
              <circle class="cls-11" cx="903.5" cy="-50.78" r="61.08" transform="translate(300.54 624) rotate(-45)"/>
            </g>
            <g>
              <circle class="cls-8" cx="896.55" cy="28.42" r="47.93" transform="translate(146.19 519.92) rotate(-35.04)"/>
              <path class="cls-17" d="M941.54,45c-5.9,15.95-20.12,28.25-38.13,30.86-26.21,3.79-50.51-14.38-54.3-40.58-1.73-11.95,1.11-23.48,7.22-32.88-2.68,7.24-3.64,15.24-2.45,23.42,3.78,26.19,28.08,44.35,54.29,40.57,14.24-2.06,26.11-10.19,33.37-21.38Z"/>
              <path class="cls-7" d="M902.73,73.63c13.63-1.24,25.28-7.99,33.12-17.77-7.93,11.34-20.7,19.25-35.86,20.37-23.78,1.75-45.57-14.73-50.37-38.09-2.66-12.97.12-25.6,6.71-35.75-.03.09-.06.18-.1.27-.44,1.23-.96,2.42-1.5,3.6-3.81,8.39-5.21,17.97-3.52,27.79,4.2,24.39,26.86,41.82,51.51,39.58Z"/>
              <g>
                <path class="cls-8" d="M903.13,93.15c-.7-5.6.83-12.19,3.85-12.57,3.02-.38,6.38,5.6,7.08,11.2.7,5.6-1.51,8.7-4.53,9.08-3.02.38-5.69-2.11-6.4-7.71Z"/>
                <path class="cls-8" d="M855.19,79.11c3.46-4.46,9.21-8.04,11.61-6.17,2.4,1.87.55,8.47-2.91,12.93-3.46,4.46-7.22,5.08-9.63,3.22-2.4-1.87-2.54-5.52.93-9.97Z"/>
                <path class="cls-8" d="M831.23,35.27c5.6-.7,12.19.83,12.57,3.85.38,3.02-5.6,6.38-11.2,7.08-5.6.7-8.7-1.51-9.08-4.53-.38-3.02,2.11-5.69,7.71-6.4Z"/>
                <path class="cls-8" d="M845.27-12.67c4.46,3.46,8.04,9.21,6.17,11.61-1.87,2.4-8.47.55-12.93-2.91s-5.08-7.22-3.22-9.63c1.87-2.4,5.52-2.54,9.97.93Z"/>
                <path class="cls-8" d="M961.01,21.25c-5.6.7-12.19-.83-12.57-3.85-.38-3.02,5.6-6.38,11.2-7.08,5.6-.7,8.7,1.51,9.08,4.53.38,3.02-2.11,5.69-7.71,6.4Z"/>
                <path class="cls-8" d="M946.96,69.19c-4.46-3.46-8.04-9.21-6.17-11.61,1.87-2.4,8.47-.55,12.93,2.91,4.46,3.46,5.08,7.22,3.22,9.63-1.87,2.4-5.52,2.54-9.97-.93Z"/>
              </g>
              <g>
                <path class="cls-4" d="M883.24,86.01c.52-3.19,2.44-6.56,4.16-6.28,1.72.28,2.59,4.11,2.07,7.3-.52,3.19-2.25,4.53-3.97,4.25-1.72-.28-2.78-2.08-2.26-5.27Z"/>
                <path class="cls-4" d="M846.18,59.99c2.63-1.89,6.36-2.92,7.38-1.5,1.02,1.42-1.08,4.74-3.7,6.63-2.63,1.89-4.79,1.62-5.81.2s-.5-3.44,2.13-5.33Z"/>
                <path class="cls-4" d="M838.37,15.39c3.19.52,6.56,2.44,6.28,4.16-.28,1.72-4.11,2.59-7.3,2.07-3.19-.52-4.53-2.25-4.25-3.97.28-1.72,2.08-2.78,5.27-2.26Z"/>
                <path class="cls-4" d="M953.87,41.14c-3.19-.52-6.56-2.44-6.28-4.16.28-1.72,4.11-2.59,7.3-2.07,3.19.52,4.53,2.25,4.25,3.97s-2.08,2.78-5.27,2.26Z"/>
                <path class="cls-4" d="M927.85,78.2c-1.89-2.63-2.92-6.36-1.5-7.38s4.74,1.08,6.63,3.7c1.89,2.63,1.62,4.79.2,5.81s-3.44.5-5.33-2.13Z"/>
              </g>
              <g>
                <g>
                  <rect class="cls-7" x="897.32" y="12.51" width="10.9" height="4" transform="translate(8.6 139.66) rotate(-8.89)"/>
                  <g>
                    <path class="cls-7" d="M898.62,12.24c-.52-.85-1.31-1.43-2.3-1.82-.61-.24-1.3-.39-2.04-.48-1.08-.14-2.3-.13-3.61-.03-1.18.06-2.43.22-3.71.43-5.55.87-10.07,2.29-10.65,5.76l-13.73,1.98-2.09.3-1.23.18.75,5.21c.13.91.98,1.55,1.9,1.42.91-.13,1.55-.98,1.42-1.9l-.31-2.15,13.6-1.96c.54,1.99,1.58,3.98,3.35,5.4.74.58,1.59,1.07,2.58,1.44.61.24,1.28.42,2.02.51,1.07.2,2.24.25,3.54.12.46-.02.95-.07,1.45-.15,8.77-1.37,10.51-7.63,9.78-12.33-.12-.76-.35-1.4-.72-1.93Z"/>
                    <g>
                      <path class="cls-1" d="M894.28,9.95l-11.73,16.08c-.99-.36-1.84-.85-2.58-1.44l10.71-14.68c1.31-.1,2.52-.11,3.61.03Z"/>
                      <path class="cls-1" d="M898.62,12.24l-10.51,14.41c-1.3.13-2.47.08-3.54-.12l11.75-16.11c.99.39,1.78.96,2.3,1.82Z"/>
                    </g>
                  </g>
                  <g>
                    <path class="cls-7" d="M927.39,9.79c.74,4.7-1.01,10.96-9.78,12.33-.51.08-.99.13-1.45.15-1.3.13-2.47.08-3.54-.12-.74-.09-1.42-.27-2.02-.51-.99-.36-1.84-.85-2.58-1.44-2.19-1.76-3.28-4.38-3.66-6.81-.74-4.73,4.28-6.44,10.65-7.44,1.29-.2,2.53-.37,3.71-.43,1.31-.1,2.52-.11,3.61.03.74.09,1.44.24,2.04.48.99.39,1.78.96,2.3,1.82.37.54.6,1.18.72,1.93Z"/>
                    <g>
                      <path class="cls-1" d="M922.32,5.56l-11.73,16.08c-.99-.36-1.84-.85-2.58-1.44l10.71-14.68c1.31-.1,2.52-.11,3.61.03Z"/>
                      <path class="cls-1" d="M926.67,7.86l-10.51,14.41c-1.3.13-2.47.08-3.54-.12l11.75-16.11c.99.39,1.78.96,2.3,1.82Z"/>
                    </g>
                  </g>
                </g>
                <g>
                  <path class="cls-14" d="M939.43,24.95c.49,3.12-2.61,6.2-6.92,6.88s-8.2-1.31-8.69-4.44c-.49-3.12,2.61-6.2,6.92-6.88,4.31-.67,8.2,1.31,8.69,4.44Z"/>
                  <path class="cls-14" d="M881.37,34.03c.49,3.12-2.61,6.2-6.92,6.88-4.31.67-8.2-1.31-8.69-4.44-.49-3.12,2.61-6.2,6.92-6.88s8.2,1.31,8.69,4.44Z"/>
                </g>
                <g>
                  <path class="cls-8" d="M899.98,23.78s2.02-2.92,5-2.37c3.68.68,4.46,3.68,2.76,7.28,0,0,9.88,1.94,1.98,10.21"/>
                  <path class="cls-14" d="M905.68,24.18c.07.47-.82.98-1.97,1.14-1.16.17-2.15-.07-2.21-.54-.07-.46.82-.98,1.97-1.14,1.16-.17,2.15.07,2.21.54Z"/>
                </g>
              </g>
            </g>
            <g>
              <path class="cls-8" d="M1021.54,36.84c-10.74,2.07-14.61-32.85-16.7-43.69-2.09-10.84,1.6-10.92,6-11.77,4.4-.85,7.86-2.15,9.95,8.69s10.77,44.83.76,46.77Z"/>
              <path class="cls-7" d="M1007.67,9.56c-1.26-6.63-2.15-12.83-2.84-16.41-2.09-10.84,1.59-10.92,6-11.77,4.4-.85,7.86-2.15,9.95,8.69.69,3.58,2.1,9.68,3.31,16.32l-16.42,3.17Z"/>
              <g>
                <path class="cls-4" d="M974.13-20.54c5.59,28.96,20.93,24.31,40.23,20.59,19.31-3.73,35.27-5.12,29.68-34.08-5.59-28.96-14.44-77.64-49.92-70.79-31.54,6.09-25.58,55.33-19.99,84.29Z"/>
                <path class="cls-12" d="M974.14-20.54c5.59,28.95,20.92,24.33,40.24,20.6,17.37-3.35,32.04-4.84,30.7-26.22-7.22,8.75-16.83,14.91-28.03,17.07-15.5,2.99-30.98-2.22-43.18-13,.08.53.18,1.05.28,1.55Z"/>
              </g>
            </g>
            <g>
              <path class="cls-9" d="M1084.08,35.86c3.11,3.98,9.42,7.58,13.65,7.18,5.14-.49,9.72-3.57,13.26-7.34,7.79-8.3,11.31-20.41,9.19-31.59-2.21,4.38-7.15,7.23-12.05,6.95,5.93-3.49,8.79-10.91,8.22-17.77-.56-6.86-4.04-13.18-8.34-18.56-1.18,3.51-3.61,6.58-6.76,8.53,2.28-5.01.79-11.09-2.37-15.59-3.15-4.51-7.74-7.77-12.24-10.94-4.5-3.17-9.09-6.43-12.25-10.93-3.25,6.24-6.52,12.56-8.09,19.42-1.56,6.86-1.25,14.42,2.38,20.44-3.52-1.01-6.85-2.72-9.72-5-2.36,4.17-4.73,8.4-6.01,13.01-1.28,4.62-1.37,9.74.75,14.03,2.13,4.29,6.79,7.5,11.55,6.99-4.22,1.4-8.85,1.54-13.14.38-.05,4.79-.09,9.66,1.16,14.28,1.26,4.62,4.01,9.06,8.27,11.25,4.42,2.28,9.85,1.82,14.46-.04,2.9-1.17,5.54-2.85,8.07-4.7Z"/>
              <path class="cls-2" d="M1084.64,50.87c.75-5.41,1.3-10.84,1.66-16.28,9.09-2.02,17.35-7.83,22.2-15.71-5.76,6.66-13.57,11.3-22.08,13.21.13-2.45.23-4.9.29-7.35.06-.02.12-.03.18-.07,4.94-3.16,9-7.58,12.05-12.52,1.49-2.5,2.75-5.13,3.68-7.87.94-2.74,1.55-5.57,1.81-8.42-2.59,10.57-8.97,20.06-17.7,26.51.09-8.6-.32-17.21-1.22-25.76.07,0,.14,0,.21-.04,6.13-2.38,10.85-8.41,11.6-14.9-2.42,5.72-6.62,10.3-11.99,13.23-.39-3.4-.82-6.79-1.37-10.17-.08-.57-.16-1.14-.28-1.71-1.17-7.05-2.68-14.02-4.54-20.94-.18-.68-1.15-.33-.96.26,1.97,6.57,3.44,13.29,4.49,20.06-3.86-2.35-7.34-5.13-10.53-8.43,2.21,4.68,6.17,8.62,10.88,10.81,1.22,8.74,1.75,17.58,1.58,26.41-8.31-2.7-15.53-8.55-19.91-16.22,3.39,8.67,10.76,15.8,19.59,18.99.08.03.17.02.25.04-.22,6.04-.77,12.06-1.65,18.03-7.51-1.22-14.5-5.35-19.22-11.45,3.81,7.07,10.89,12.34,18.8,14.12-.86,5.21-1.97,10.37-3.34,15.46-.41,3.64,4.98,4.3,5.5.71Z"/>
            </g>
            <g>
              <g>
                <path class="cls-3" d="M981.17,63.03l10.18-.65c-.23-1.13-.45-2.29-.63-3.53-1.04-7.35-.49-13.51,1.23-13.76,1.72-.24,3.96,5.52,5,12.87.07.47.11.92.16,1.38.04-.15.07-.3.11-.45,1.86-7.19,4.74-12.66,6.42-12.23,1.68.44,1.54,6.62-.33,13.81-.1.4-.22.77-.33,1.16h0c-7.5,26.97-4.4,38.09,7.91,35.47l-20.11,24.12s-27.4-9.55-9.63-58.19Z"/>
                <g>
                  <path class="cls-3" d="M979.17,61.34c-.68,2.61.26,5.11,2.1,5.59,1.84.48,2.84-1.52,3.52-4.13.68-2.61.77-4.84-1.06-5.32s-3.87,1.25-4.55,3.86Z"/>
                  <path class="cls-3" d="M984,62.46c-.68,2.61.26,5.11,2.1,5.59s2.84-1.52,3.52-4.13c.68-2.61.77-4.84-1.06-5.32-1.84-.48-3.87,1.25-4.55,3.86Z"/>
                </g>
                <path class="cls-3" d="M996.42,66.09s-1.4-1.99-3.16-3.68c-3.02-2.9-7.86.53-6.07,4.32.52,1.1,1.45,2.29,2.96,3.54,0,0-2.4,1.24-3.19,4.56"/>
              </g>
              <g>
                <g>
                  <path class="cls-9" d="M1080.84,156.99c-42.85,18.75-79.23,9.16-109.23-28.45-1.12-1.4-1.38-3.39-.49-4.94,1.21-2.12,3.22-3.65,6.14-4.51,28.69,33.95,63.11,42.9,103.28,26.57,1.85,2.12,2.9,4.43,3.04,6.95.11,1.87-1.02,3.63-2.74,4.38Z"/>
                  <path class="cls-2" d="M1080.54,145.66c-40.17,16.32-74.59,7.37-103.28-26.57l4.68-4.83c27.2,29.7,59.35,37.64,96.52,23.63l2.08,7.77Z"/>
                  <path class="cls-4" d="M1078.46,137.89c-37.17,14.01-69.32,6.07-96.52-23.63l70.72-72.7,25.8,96.33Z"/>
                  <path class="cls-12" d="M1078.46,137.89c-37.17,14.01-69.32,6.07-96.52-23.63l70.72-72.7,25.8,96.33Z"/>
                  <path class="cls-13" d="M1078.45,137.9c-34.09,12.85-63.98,7.23-89.67-16.72,6.71,3.84,14.09,6.86,21.99,8.91,22.7,5.89,45.42,2.59,63.58-7.47l4.1,15.29Z"/>
                </g>
                <g>
                  <path class="cls-7" d="M1059.15,131.97c-.35-3.45.69-7.47,2.55-7.66,1.86-.19,3.83,3.53,4.18,6.98.35,3.45-1.06,5.32-2.92,5.5-1.86.19-3.46-1.38-3.81-4.83Z"/>
                  <path class="cls-7" d="M1050.2,79.54c-.35-3.45.69-7.47,2.55-7.66,1.86-.19,3.83,3.53,4.18,6.98.35,3.45-1.06,5.32-2.92,5.5-1.86.19-3.46-1.38-3.81-4.83Z"/>
                  <path class="cls-7" d="M1025.39,130.04c.77-3.38,3.05-6.86,4.87-6.44,1.82.42,2.5,4.57,1.73,7.95-.77,3.38-2.71,4.7-4.53,4.28-1.82-.42-2.84-2.41-2.07-5.79Z"/>
                  <path class="cls-7" d="M1015.47,117.27c1.36-3.19,4.22-6.21,5.93-5.47,1.72.73,1.65,4.94.29,8.13-1.36,3.19-3.5,4.14-5.21,3.41-1.72-.73-2.36-2.88-1-6.07Z"/>
                  <path class="cls-7" d="M1043.69,61.03c1.08-3.29,3.67-6.54,5.44-5.96,1.77.58,2.07,4.78.98,8.07-1.08,3.29-3.13,4.43-4.9,3.84-1.77-.58-2.6-2.67-1.52-5.96Z"/>
                  <path class="cls-7" d="M1043.93,124.85c.33-3.45,2.12-7.2,3.98-7.02,1.86.18,3.07,4.21,2.75,7.66-.33,3.45-2.07,5.01-3.93,4.84-1.86-.18-3.13-2.02-2.8-5.47Z"/>
                  <path class="cls-7" d="M997.68,113.87c1.93-2.88,5.3-5.31,6.85-4.27,1.55,1.04.69,5.16-1.24,8.04s-4.21,3.42-5.76,2.37-1.78-3.27.15-6.15Z"/>
                  <path class="cls-7" d="M1027.97,72.92c1.93-2.88,5.3-5.31,6.85-4.27s.69,5.16-1.24,8.04c-1.93,2.88-4.21,3.42-5.76,2.37s-1.78-3.27.15-6.15Z"/>
                </g>
                <g>
                  <g>
                    <g>
                      <path class="cls-1" d="M1038.67,94.66c.63-4.09,3.58-7.15,7.04-7.63.68-.11,1.38-.11,2.08,0,4.27.66,7.15,5.13,6.39,10.03-.75,4.87-4.85,8.29-9.12,7.63-2.58-.4-4.62-2.15-5.67-4.55h-.03c-.74-1.61-1-3.52-.7-5.47Z"/>
                      <path class="cls-7" d="M1038.67,94.66c.63-4.09,3.58-7.15,7.04-7.63,1.93,1.66,2.98,4.19,2.57,6.82-.64,4.14-4.61,6.91-8.89,6.28h-.03c-.74-1.61-1-3.52-.7-5.47Z"/>
                    </g>
                    <g>
                      <path class="cls-1" d="M1022.76,90.98c.63-4.09,3.58-7.15,7.04-7.63.68-.11,1.38-.11,2.08,0,4.27.66,7.15,5.13,6.39,10.03-.75,4.87-4.85,8.29-9.12,7.63-2.58-.4-4.62-2.15-5.67-4.56h-.03c-.74-1.61-1-3.52-.7-5.47Z"/>
                      <path class="cls-7" d="M1022.76,90.98c.63-4.09,3.58-7.15,7.04-7.63,1.93,1.66,2.98,4.19,2.57,6.82-.64,4.14-4.61,6.91-8.89,6.28h-.03c-.74-1.61-1-3.52-.7-5.47Z"/>
                    </g>
                  </g>
                  <path class="cls-5" d="M1041.5,106.86s-7.31,7.02-14.37-.82"/>
                  <g>
                    <path class="cls-10" d="M1058.09,114.75c-3.82-.99-6.35-3.98-5.65-6.68.7-2.7,4.37-4.08,8.19-3.09,3.82.99,6.35,3.98,5.65,6.68-.7,2.7-4.37,4.08-8.19,3.09Z"/>
                    <path class="cls-10" d="M1011.44,104.56c-3.67-1.45-5.82-4.73-4.8-7.32,1.02-2.59,4.83-3.52,8.5-2.07,3.67,1.45,5.82,4.73,4.8,7.32-1.02,2.59-4.83,3.52-8.5,2.07Z"/>
                  </g>
                </g>
                <path class="cls-7" d="M1080.85,157c-27.12,11.86-51.66,12.37-73.61,1.61,1.97.67,3.96,1.29,6.01,1.82,27.06,7.02,53.67-1.65,65.96-19.75l1.34,5c1.86,2.13,2.91,4.42,3.05,6.95.11,1.87-1.04,3.61-2.74,4.38Z"/>
              </g>
              <g>
                <g>
                  <path class="cls-8" d="M1010.1,132.47c-9.59,18.84-2.1,41.85,16.74,51.43,18.84,9.59,41.85,2.1,51.43-16.74,7.43-14.59,4.59-31.72-5.82-43.15-3.01-3.29-6.67-6.12-10.92-8.28-4.24-2.16-8.69-3.46-13.12-3.95-15.37-1.69-30.89,6.1-38.31,20.69Z"/>
                  <ellipse class="cls-1" cx="1044.19" cy="149.82" rx="38.24" ry="27.2" transform="translate(437.07 1012.48) rotate(-63.03)"/>
                  <path class="cls-8" d="M1033.36,144.31c-9.58,18.82-12.5,36.55-6.52,39.59,5.98,3.04,18.59-9.75,28.17-28.58,9.58-18.82,12.5-36.55,6.52-39.59s-18.59,9.75-28.17,28.58Z"/>
                </g>
                <path class="cls-6" d="M1048.42,111.78c.11.61.38,1.29.74,2,.77,1.39,2.09,2.93,3.82,4.35,1.54,1.3,3.4,2.52,5.51,3.6,2.11,1.07,4.19,1.86,6.15,2.34,2.17.55,4.18.72,5.77.52.78-.12,1.5-.31,2.05-.58-3.01-3.29-6.67-6.12-10.92-8.28-4.24-2.16-8.69-3.46-13.12-3.95Z"/>
              </g>
              <g>
                <path class="cls-3" d="M1037.43,155.8c-.69-.17-1.9-.63-2.11-1.78-.03-.16-.17-2.39,2.16-2.5,1.36-.07,3.29.26,5.08.67,1.14.26,3.58,1.06,4.7.57,1.36-.59,1.15-2.56-1-3.09,0,0-3.97-.81-2.95-3.19.77-2.63,5.93-.9,11.5,1.05,10.43-4.95,16.87-10.81,19.09-17.64.88-2.71.86-5.64.14-8.4l-1.59-6.03s19.86,11.57,13.46,30.84c-.84,2.53-2.15,4.87-3.71,7.04-4.78,6.62-12.84,14.53-35.17,15.87-2.5.15-9.12-.29-8.85-2.72.08-.72.45-1.48,2.08-1.79,0,0-6.49.43-4.83-4.4,0,0-2.71-.48-2.21-2.91,0,0,.32-2.49,4.22-1.58Z"/>
                <g>
                  <path class="cls-5" d="M1037.43,155.8c1.93.64,4.43,1.29,6.88,1.7"/>
                  <path class="cls-5" d="M1035.43,160.3c1.93.64,5.62,1.14,7.98.79"/>
                  <path class="cls-5" d="M1040.25,164.69s1.15.01,2.73.06"/>
                </g>
              </g>
            </g>
            <g>
              <path class="cls-8" d="M1093.55,63.78c-1.83-1.17-4.53-.68-5.87,1.06.54-2.23-.62-4.74-2.65-5.77-2.03-1.03-4.75-.48-6.23,1.27-.59.69-.95,1.54-1.1,2.42-1.12-.72-2.51-1.03-3.81-.67-2.52.69-4.13,3.72-3.3,6.19.68,2.02,2.87,3.32,4.96,3.19-1.77.7-3.15,2.46-3.25,4.38-.13,2.4,1.76,4.74,4.13,5.11,2.37.37,4.9-1.27,5.54-3.6.42,2.39,2.65,4.31,5.07,4.37,2.42.06,4.77-1.75,5.33-4.11.57-2.36-.71-5.02-2.9-6.05,2,.85,4.59-.09,5.6-2.03,1.01-1.94.31-4.59-1.52-5.76Z"/>
              <path class="cls-6" d="M1085.39,71.87c-.68,1.07-1.97,1.73-3.23,1.61-1.41-.14-2.67-1.26-2.96-2.65s.39-2.94,1.61-3.66c2.79-1.64,6.1,1.33,4.8,4.29-.06.14-.14.28-.22.41Z"/>
            </g>
            <g>
              <path class="cls-6" d="M956.92,112.23c-2.03-1.29-5.02-.75-6.5,1.17.6-2.47-.68-5.26-2.94-6.4-2.25-1.14-5.26-.53-6.91,1.41-.65.76-1.05,1.7-1.22,2.69-1.24-.8-2.78-1.14-4.22-.74-2.79.77-4.58,4.12-3.66,6.86.75,2.23,3.18,3.68,5.5,3.53-1.97.78-3.49,2.72-3.61,4.86-.14,2.67,1.95,5.25,4.58,5.66,2.63.41,5.43-1.41,6.14-3.99.46,2.65,2.94,4.78,5.62,4.85,2.68.07,5.28-1.94,5.91-4.56.63-2.62-.79-5.57-3.22-6.7,2.22.94,5.09-.1,6.21-2.25,1.12-2.15.35-5.09-1.69-6.38Z"/>
              <path class="cls-8" d="M947.87,121.2c-.75,1.18-2.18,1.92-3.58,1.78-1.56-.15-2.96-1.4-3.28-2.94s.43-3.26,1.79-4.06c3.09-1.81,6.77,1.48,5.32,4.75-.07.16-.15.31-.24.46Z"/>
            </g>
            <g>
              <path class="cls-6" d="M871.58,147.38c-1.45-.92-3.57-.54-4.62.83.42-1.76-.49-3.74-2.09-4.55-1.6-.81-3.74-.38-4.91,1-.46.54-.75,1.21-.87,1.91-.88-.57-1.98-.81-3-.53-1.99.54-3.26,2.93-2.6,4.88.54,1.59,2.26,2.62,3.91,2.51-1.4.55-2.48,1.94-2.56,3.45-.1,1.9,1.39,3.73,3.26,4.03,1.87.29,3.86-1,4.36-2.83.33,1.88,2.09,3.4,4,3.45,1.91.05,3.76-1.38,4.2-3.24.45-1.86-.56-3.96-2.29-4.77,1.58.67,3.62-.07,4.42-1.6.8-1.53.25-3.62-1.2-4.54Z"/>
              <path class="cls-8" d="M865.14,153.76c-.53.84-1.55,1.36-2.54,1.27-1.11-.11-2.1-.99-2.34-2.09-.23-1.09.3-2.32,1.27-2.88,2.2-1.29,4.81,1.05,3.78,3.38-.05.11-.11.22-.17.33Z"/>
            </g>
            <g>
              <path class="cls-4" d="M893.86,133.35c-.62-2.3-3.16-3.9-5.53-3.49,2.08-1.4,3.01-4.29,2.13-6.63-.88-2.34-3.49-3.9-5.98-3.59-.98.12-1.91.54-2.69,1.14-.37-1.41-1.27-2.69-2.58-3.36-2.55-1.31-6.09-.05-7.25,2.57-.94,2.13-.14,4.81,1.65,6.25-1.96-.74-4.37-.34-5.87,1.14-1.88,1.85-2.08,5.14-.44,7.19,1.64,2.05,4.9,2.6,7.14,1.19-1.43,2.24-1.05,5.45.87,7.29,1.91,1.84,5.15,2.11,7.36.62,2.21-1.49,3.14-4.59,2.13-7.04.99,2.17,3.78,3.32,6.04,2.5,2.26-.82,3.65-3.48,3.03-5.78Z"/>
              <path class="cls-8" d="M883.9,132.04c-.91,1.43-2.65,2.33-4.34,2.16-1.9-.19-3.58-1.69-3.98-3.56-.4-1.87.52-3.95,2.17-4.92,3.74-2.2,8.2,1.79,6.45,5.76-.09.19-.18.38-.3.55Z"/>
            </g>
          </g>
          <g>
            <g class="cls-16">
              <circle class="cls-11" cx="613.76" cy="-54.32" r="58.12" transform="translate(523.92 555.25) rotate(-76.56)"/>
              <circle class="cls-11" cx="750.96" cy="-56.7" r="61.08"/>
            </g>
            <g>
              <g>
                <g>
                  <path class="cls-9" d="M803.15,11.08c-42.85,18.75-79.23,9.16-109.23-28.45-1.12-1.4-1.38-3.39-.49-4.94,1.21-2.12,3.22-3.65,6.14-4.51,28.69,33.95,63.11,42.9,103.28,26.57,1.85,2.12,2.9,4.43,3.04,6.95.11,1.87-1.02,3.63-2.74,4.38Z"/>
                  <path class="cls-2" d="M802.85-.25c-40.17,16.32-74.59,7.37-103.28-26.57l4.68-4.83c27.2,29.7,59.35,37.64,96.52,23.63l2.08,7.77Z"/>
                </g>
                <path class="cls-7" d="M803.15,11.09c-27.12,11.86-51.66,12.37-73.61,1.61,1.97.67,3.96,1.29,6.01,1.82,27.06,7.02,53.67-1.65,65.96-19.75l1.34,5c1.86,2.13,2.91,4.42,3.05,6.95.11,1.87-1.04,3.61-2.74,4.38Z"/>
              </g>
              <g>
                <path class="cls-8" d="M732.41-13.44c-9.59,18.84-2.1,41.85,16.74,51.43,18.84,9.59,41.84,2.1,51.43-16.74,7.43-14.59,4.59-31.72-5.82-43.15-3.01-3.29-6.67-6.12-10.92-8.28-4.24-2.16-8.69-3.46-13.12-3.95-15.37-1.69-30.89,6.1-38.31,20.69Z"/>
                <ellipse class="cls-1" cx="766.5" cy="3.91" rx="38.24" ry="27.2" transform="translate(415.37 685.26) rotate(-63.03)"/>
                <path class="cls-8" d="M755.67-1.6c-9.58,18.82-12.5,36.55-6.52,39.59s18.59-9.75,28.17-28.58c9.58-18.82,12.5-36.55,6.52-39.59-5.98-3.04-18.59,9.75-28.17,28.58Z"/>
              </g>
              <g>
                <path class="cls-3" d="M759.73,9.89c-.69-.17-1.9-.63-2.11-1.78-.03-.16-.17-2.39,2.16-2.5,1.36-.07,3.29.26,5.08.67,1.14.26,3.58,1.06,4.7.57,1.36-.59,1.15-2.56-1-3.09,0,0-3.97-.81-2.95-3.19.77-2.63,5.93-.9,11.5,1.05,10.43-4.95,16.87-10.81,19.09-17.64.88-2.71.86-5.64.14-8.4l-1.59-6.03s19.86,11.57,13.46,30.84c-.84,2.53-2.15,4.87-3.71,7.04-4.78,6.62-12.84,14.53-35.17,15.87-2.5.15-9.12-.29-8.85-2.72.08-.72.45-1.48,2.08-1.79,0,0-6.49.43-4.83-4.4,0,0-2.71-.48-2.21-2.91,0,0,.32-2.49,4.22-1.58Z"/>
                <g>
                  <path class="cls-5" d="M759.73,9.89c1.93.64,4.43,1.29,6.88,1.7"/>
                  <path class="cls-5" d="M757.74,14.39c1.93.64,5.62,1.14,7.98.79"/>
                  <path class="cls-5" d="M762.56,18.77s1.15.01,2.73.06"/>
                </g>
              </g>
            </g>
          </g>
        </g>
        <path class="cls-5" d="M759.73,301.71c1.93.64,4.43,1.29,6.88,1.71"/>
        <g>
          <g>
            <g class="cls-16">
              <circle class="cls-11" cx="613.76" cy="237.51" r="58.12" transform="translate(11.82 503.55) rotate(-45)"/>
              <circle class="cls-11" cx="625.81" cy="95.13" r="61.08" transform="translate(430.77 697.33) rotate(-80.7)"/>
            </g>
            <g>
              <circle class="cls-8" cx="618.86" cy="174.33" r="47.93" transform="translate(184.85 648.69) rotate(-63.28)"/>
              <path class="cls-17" d="M663.85,190.91c-5.9,15.95-20.12,28.25-38.13,30.86-26.21,3.79-50.51-14.38-54.3-40.59-1.73-11.95,1.11-23.48,7.22-32.88-2.68,7.24-3.64,15.24-2.45,23.42,3.78,26.19,28.08,44.35,54.29,40.57,14.24-2.06,26.11-10.19,33.37-21.38Z"/>
              <path class="cls-7" d="M625.04,219.54c13.63-1.24,25.28-7.99,33.12-17.77-7.93,11.34-20.7,19.25-35.86,20.37-23.78,1.75-45.57-14.73-50.37-38.09-2.66-12.97.12-25.6,6.71-35.75-.03.09-.06.18-.1.27-.44,1.23-.96,2.42-1.5,3.6-3.81,8.39-5.21,17.97-3.52,27.79,4.2,24.39,26.86,41.82,51.51,39.58Z"/>
              <g>
                <path class="cls-8" d="M625.44,239.06c-.7-5.6.83-12.2,3.85-12.57,3.02-.38,6.38,5.6,7.08,11.2s-1.51,8.7-4.53,9.08c-3.02.38-5.69-2.11-6.4-7.71Z"/>
                <path class="cls-8" d="M577.5,225.02c3.46-4.46,9.21-8.04,11.61-6.17,2.4,1.87.55,8.47-2.91,12.93-3.46,4.46-7.22,5.08-9.63,3.22-2.4-1.87-2.54-5.52.93-9.97Z"/>
                <path class="cls-8" d="M553.53,181.19c5.6-.7,12.19.83,12.57,3.85.38,3.02-5.6,6.38-11.2,7.08s-8.7-1.51-9.08-4.53c-.38-3.02,2.11-5.69,7.71-6.4Z"/>
                <path class="cls-8" d="M567.58,133.25c4.46,3.46,8.04,9.21,6.17,11.61-1.87,2.4-8.47.55-12.93-2.91-4.46-3.46-5.08-7.22-3.22-9.63,1.87-2.4,5.52-2.54,9.97.93Z"/>
                <path class="cls-8" d="M611.41,109.28c.7,5.6-.83,12.19-3.85,12.57-3.02.38-6.38-5.6-7.08-11.2s1.51-8.7,4.53-9.08,5.69,2.11,6.4,7.71Z"/>
                <path class="cls-8" d="M659.35,123.33c-3.46,4.46-9.21,8.04-11.61,6.17-2.4-1.87-.55-8.47,2.91-12.93,3.46-4.46,7.22-5.08,9.63-3.22,2.4,1.87,2.54,5.52-.93,9.97Z"/>
                <path class="cls-8" d="M669.27,215.1c-4.46-3.46-8.04-9.21-6.17-11.61,1.87-2.4,8.47-.55,12.93,2.91,4.46,3.46,5.08,7.22,3.22,9.63-1.87,2.4-5.52,2.54-9.97-.93Z"/>
              </g>
              <g>
                <path class="cls-4" d="M605.55,231.92c.52-3.19,2.44-6.56,4.16-6.28,1.72.28,2.59,4.11,2.07,7.3-.52,3.19-2.25,4.53-3.97,4.25-1.72-.28-2.78-2.08-2.26-5.27Z"/>
                <path class="cls-4" d="M568.49,205.9c2.63-1.89,6.36-2.92,7.38-1.5,1.02,1.42-1.08,4.74-3.7,6.63s-4.79,1.62-5.81.2-.5-3.44,2.13-5.33Z"/>
                <path class="cls-4" d="M560.68,161.3c3.19.52,6.56,2.44,6.28,4.16-.28,1.72-4.11,2.59-7.3,2.07s-4.53-2.25-4.25-3.97c.28-1.72,2.08-2.78,5.27-2.26Z"/>
                <path class="cls-4" d="M586.7,124.23c1.89,2.63,2.92,6.36,1.5,7.38s-4.74-1.07-6.63-3.7c-1.89-2.63-1.62-4.79-.2-5.81,1.42-1.02,3.44-.5,5.33,2.13Z"/>
                <path class="cls-4" d="M631.3,116.43c-.52,3.19-2.44,6.56-4.16,6.28-1.72-.28-2.59-4.11-2.07-7.3.52-3.19,2.25-4.53,3.97-4.25,1.72.28,2.78,2.08,2.26,5.27Z"/>
                <path class="cls-4" d="M668.37,142.44c-2.63,1.89-6.36,2.92-7.38,1.5-1.02-1.42,1.08-4.74,3.7-6.63s4.79-1.62,5.81-.2c1.02,1.42.5,3.44-2.13,5.33Z"/>
                <path class="cls-4" d="M650.15,224.11c-1.89-2.63-2.92-6.36-1.5-7.38s4.74,1.08,6.63,3.7,1.62,4.79.2,5.81c-1.42,1.02-3.44.5-5.33-2.13Z"/>
              </g>
              <g>
                <g>
                  <rect class="cls-7" x="619.63" y="158.43" width="10.9" height="4" transform="translate(-17.28 98.5) rotate(-8.89)"/>
                  <g>
                    <path class="cls-7" d="M620.93,158.16c-.52-.85-1.31-1.43-2.3-1.82-.61-.24-1.3-.39-2.04-.48-1.08-.14-2.3-.13-3.61-.03-1.18.06-2.43.22-3.71.43-5.55.87-10.07,2.29-10.65,5.76l-13.73,1.98-2.09.3-1.23.18.75,5.21c.13.91.98,1.55,1.9,1.42s1.55-.98,1.42-1.9l-.31-2.15,13.6-1.96c.54,1.99,1.58,3.98,3.35,5.4.74.58,1.59,1.07,2.58,1.44.61.24,1.28.42,2.02.51,1.07.2,2.24.25,3.54.12.46-.02.95-.07,1.45-.15,8.77-1.37,10.51-7.63,9.78-12.33-.12-.76-.35-1.4-.72-1.93Z"/>
                    <g>
                      <path class="cls-1" d="M616.58,155.86l-11.73,16.08c-.99-.36-1.84-.85-2.58-1.44l10.71-14.68c1.31-.1,2.52-.11,3.61.03Z"/>
                      <path class="cls-1" d="M620.93,158.16l-10.51,14.41c-1.3.13-2.47.08-3.54-.12l11.75-16.11c.99.39,1.78.96,2.3,1.82Z"/>
                    </g>
                  </g>
                  <g>
                    <path class="cls-7" d="M649.7,155.7c.74,4.7-1.01,10.96-9.78,12.33-.51.08-.99.13-1.45.15-1.3.13-2.47.08-3.54-.12-.74-.09-1.42-.27-2.02-.51-.99-.36-1.84-.85-2.58-1.44-2.19-1.76-3.28-4.38-3.66-6.81-.74-4.73,4.28-6.44,10.65-7.44,1.29-.2,2.53-.37,3.71-.43,1.31-.1,2.52-.11,3.61.03.74.09,1.44.24,2.04.48.99.39,1.78.96,2.3,1.82.37.54.6,1.18.72,1.93Z"/>
                    <g>
                      <path class="cls-1" d="M644.63,151.47l-11.73,16.08c-.99-.36-1.84-.85-2.58-1.44l10.71-14.68c1.31-.1,2.52-.11,3.61.03Z"/>
                      <path class="cls-1" d="M648.98,153.77l-10.51,14.41c-1.3.13-2.47.08-3.54-.12l11.75-16.11c.99.39,1.78.96,2.3,1.82Z"/>
                    </g>
                  </g>
                </g>
                <g>
                  <path class="cls-14" d="M661.74,170.86c.49,3.12-2.61,6.2-6.92,6.88-4.31.67-8.2-1.31-8.69-4.44-.49-3.12,2.61-6.2,6.92-6.88,4.31-.67,8.2,1.31,8.69,4.44Z"/>
                  <path class="cls-14" d="M603.68,179.94c.49,3.12-2.61,6.2-6.92,6.88s-8.2-1.31-8.69-4.44c-.49-3.12,2.61-6.2,6.92-6.88s8.2,1.31,8.69,4.44Z"/>
                </g>
                <g>
                  <path class="cls-8" d="M622.29,169.69s2.02-2.92,5-2.37c3.68.68,4.46,3.68,2.76,7.28,0,0,9.88,1.94,1.98,10.21"/>
                  <path class="cls-14" d="M627.99,170.1c.07.47-.82.98-1.97,1.14-1.16.17-2.15-.07-2.21-.54-.07-.46.82-.98,1.97-1.14,1.16-.17,2.15.07,2.22.54Z"/>
                </g>
              </g>
            </g>
            <g>
              <path class="cls-9" d="M622.19,60.56c-5.34-.5-12.18-4.09-14.24-8.1-2.51-4.88-2.37-10.74-1.03-16.06,2.96-11.72,11.78-21.81,23-26.32-2.65,4.49-2.37,10.54.68,14.77-.27-7.31,4.73-14.11,11.19-17.54,6.46-3.43,14.11-3.93,21.38-3.17-2.47,3.06-3.82,7-3.77,10.94,3.18-4.91,9.47-7.05,15.31-6.81,5.84.24,11.39,2.48,16.8,4.68,5.41,2.21,10.96,4.45,16.8,4.7-3.72,6.48-7.5,13.03-12.74,18.36-5.24,5.33-12.19,9.37-19.65,9.58,2.92,2.57,6.36,4.57,10.04,5.83-2.38,4.5-4.8,9.05-8.2,12.84-3.4,3.79-7.93,6.81-12.99,7.37-5.06.56-10.59-1.78-12.87-6.33,1.16,4.58,3.69,8.8,7.18,11.98-4.26,2.79-8.59,5.62-13.44,7.14-4.86,1.52-10.4,1.6-14.81-.95-4.57-2.65-7.27-7.77-8.24-12.96-.61-3.27-.62-6.59-.41-9.92Z"/>
              <path class="cls-2" d="M608.44,68.66c4.41-3.77,8.96-7.38,13.62-10.81-3.4-9.29-2.93-20.01,1.34-28.86-2.66,8.97-2.34,18.61.82,27.33,2.12-1.52,4.25-3.02,6.42-4.47-.01-.07-.04-.12-.04-.2,0-6.23,1.62-12.39,4.3-17.95,1.39-2.76,3.02-5.4,4.94-7.8,1.91-2.41,4.1-4.58,6.5-6.45-7.97,8.37-12.81,19.52-13.58,31.02,7.65-5.01,15.58-9.57,23.75-13.66-.03-.07-.07-.13-.09-.21-1.38-6.85,1.31-14.52,6.68-18.92-3.73,5.44-5.43,11.82-4.97,18.31,3.26-1.6,6.55-3.15,9.88-4.6.56-.25,1.11-.51,1.69-.73,6.97-2.99,14.08-5.63,21.33-7.94.71-.23.95.83.32,1.01-7,2-13.86,4.54-20.52,7.48,4.31,2.11,8.79,3.64,13.58,4.59-5.45.7-11.24-.58-15.91-3.54-8.52,3.91-16.73,8.51-24.54,13.71,7.18,5.89,16.55,8.99,25.92,8.52-9.7,1.93-20.3-.58-28.22-6.65-.07-.06-.12-.14-.18-.21-5.28,3.65-10.35,7.59-15.19,11.8,5.39,6.03,13.09,9.91,21.25,10.63-8.5.64-17.28-2.68-23.41-8.73-4.17,3.75-8.15,7.7-11.92,11.85-3.03,2.45-6.7-2-3.79-4.52Z"/>
            </g>
            <g>
              <path class="cls-6" d="M580.76,60.41c-3.48.06-6.66,3.08-6.9,6.55-1.25-3.43-5.01-5.75-8.64-5.34-3.63.42-6.76,3.53-7.21,7.16-.17,1.43.09,2.88.67,4.19-2.13.02-4.26.85-5.68,2.45-2.75,3.13-2.24,8.56,1.06,11.11,2.69,2.08,6.76,1.89,9.44-.12-1.75,2.49-2.04,6.03-.47,8.67,1.96,3.3,6.54,4.74,10.04,3.15,3.49-1.59,5.42-5.99,4.22-9.64,2.67,2.8,7.36,3.39,10.64,1.35,3.29-2.04,4.82-6.51,3.49-10.14-1.33-3.63-5.39-6.04-9.22-5.48,3.42-.64,6.05-4.15,5.69-7.62s-3.64-6.37-7.12-6.3Z"/>
              <path class="cls-8" d="M577,78.31c.04,2.01-1.1,4.03-2.89,4.97-2.01,1.06-4.68.67-6.3-.91s-2.08-4.24-1.08-6.28c2.28-4.62,9.33-3.59,10.2,1.48.04.25.06.49.07.74Z"/>
            </g>
            <g>
              <path class="cls-6" d="M679.23,258.15c-2.03-1.29-5.02-.75-6.5,1.17.6-2.47-.68-5.26-2.94-6.4-2.25-1.14-5.26-.53-6.91,1.41-.65.76-1.05,1.7-1.22,2.69-1.24-.8-2.78-1.14-4.22-.74-2.79.77-4.58,4.12-3.66,6.86.75,2.23,3.18,3.68,5.5,3.53-1.97.78-3.49,2.72-3.61,4.86-.14,2.67,1.95,5.25,4.58,5.66,2.63.41,5.43-1.41,6.14-3.99.46,2.65,2.94,4.78,5.62,4.85,2.68.07,5.28-1.94,5.91-4.56.63-2.62-.79-5.57-3.22-6.7,2.22.94,5.09-.1,6.21-2.25,1.12-2.15.35-5.09-1.69-6.38Z"/>
              <path class="cls-8" d="M670.18,267.11c-.75,1.18-2.18,1.92-3.58,1.78-1.56-.15-2.96-1.4-3.28-2.94-.33-1.54.43-3.26,1.79-4.06,3.09-1.81,6.77,1.48,5.32,4.75-.07.16-.15.31-.24.46Z"/>
            </g>
            <g>
              <path class="cls-4" d="M616.17,279.26c-.62-2.3-3.16-3.9-5.53-3.49,2.08-1.4,3.01-4.29,2.13-6.63-.88-2.34-3.49-3.9-5.98-3.59-.98.12-1.91.54-2.69,1.14-.37-1.41-1.27-2.69-2.58-3.36-2.55-1.31-6.09-.05-7.25,2.57-.94,2.13-.14,4.81,1.65,6.25-1.96-.74-4.37-.34-5.87,1.14-1.88,1.85-2.08,5.14-.44,7.19,1.64,2.05,4.9,2.6,7.14,1.19-1.43,2.24-1.05,5.45.87,7.29,1.91,1.84,5.15,2.11,7.36.62,2.21-1.49,3.14-4.59,2.13-7.04.99,2.17,3.78,3.32,6.04,2.5,2.26-.82,3.65-3.48,3.03-5.78Z"/>
              <path class="cls-8" d="M606.21,277.95c-.91,1.43-2.65,2.33-4.34,2.16-1.9-.19-3.58-1.69-3.98-3.56-.4-1.87.52-3.95,2.17-4.92,3.74-2.2,8.2,1.79,6.45,5.76-.09.19-.18.38-.3.55Z"/>
            </g>
          </g>
          <g>
            <g class="cls-16">
              <circle class="cls-11" cx="70.43" cy="95.13" r="61.08" transform="translate(-47.37 106.69) rotate(-59.09)"/>
            </g>
            <g>
              <path class="cls-8" d="M127.93,167.16c-5.6.7-12.19-.83-12.57-3.85-.38-3.02,5.6-6.38,11.2-7.08s8.7,1.51,9.08,4.53c.38,3.02-2.11,5.69-7.71,6.4Z"/>
              <path class="cls-4" d="M112.98,142.44c-2.63,1.89-6.36,2.92-7.38,1.5-1.02-1.42,1.07-4.74,3.7-6.63s4.79-1.62,5.81-.2.5,3.44-2.13,5.33Z"/>
            </g>
            <g>
              <path class="cls-8" d="M188.46,182.75c-10.74,2.07-14.61-32.85-16.7-43.69-2.09-10.84,1.6-10.92,6-11.77,4.4-.85,7.86-2.15,9.95,8.69,2.09,10.84,10.77,44.83.76,46.76Z"/>
              <path class="cls-7" d="M174.6,155.48c-1.26-6.63-2.15-12.83-2.84-16.41-2.09-10.84,1.59-10.92,6-11.77,4.4-.85,7.86-2.15,9.95,8.69.69,3.58,2.1,9.68,3.31,16.32l-16.42,3.17Z"/>
              <g>
                <path class="cls-4" d="M141.06,125.38c5.59,28.96,20.93,24.31,40.23,20.59,19.31-3.73,35.27-5.12,29.68-34.08-5.59-28.96-14.44-77.64-49.93-70.79-31.54,6.09-25.58,55.33-19.99,84.29Z"/>
                <path class="cls-12" d="M141.06,125.37c5.59,28.95,20.92,24.33,40.24,20.6,17.37-3.35,32.04-4.84,30.7-26.22-7.22,8.75-16.83,14.91-28.03,17.07-15.5,2.99-30.98-2.22-43.18-13,.08.53.18,1.05.28,1.55Z"/>
                <g class="cls-19">
                  <path class="cls-12" d="M180.29,112.52c3.81,19.75,7.13,17.96,11.48,17.12,4.36-.84,8.1-.41,4.29-20.16-3.81-19.75-10.09-52.89-18.09-51.35-7.11,1.37-1.49,34.64,2.32,54.39Z"/>
                  <path class="cls-12" d="M153.22,117.75c3.81,19.75,7.13,17.96,11.48,17.12,4.36-.84,8.1-.41,4.29-20.16-3.81-19.75-10.09-52.89-18.09-51.35-7.11,1.37-1.49,34.64,2.32,54.39Z"/>
                </g>
              </g>
              <g>
                <g>
                  <path class="cls-7" d="M160.03,99.05c.21,1.67,1.32,3.1,2.69,4.08.09.08.18.14.27.2,3.01,2.03,6.94,2.24,10.49,1.57,2.36-.44,4.71-1.27,6.6-2.73.58-.44,1.1-.99,1.57-1.59,2.1-2.7,2.93-6.71-.16-9.07-2.59-2-4.97.72-7.25,1.84-2.73,1.32-5.81,1.97-8.86,1.58-1.8-.23-3.68.07-4.69,1.23-.57.65-.85,1.59-.67,2.88Z"/>
                  <path class="cls-4" d="M162.73,103.13c.09.08.18.14.27.2,3.01,2.03,6.94,2.24,10.49,1.57,2.36-.44,4.71-1.27,6.6-2.73.58-.44,1.1-.99,1.57-1.59-1.92-1.45-4.68-2.44-7.79-2.61-5.35-.29-9.94,1.94-11.14,5.15Z"/>
                </g>
                <g>
                  <path class="cls-14" d="M195.64,94.57c-4.34.32-8.05-1.91-8.27-4.97-.23-3.07,3.11-5.81,7.45-6.13,4.34-.32,8.05,1.91,8.27,4.97.23,3.07-3.11,5.81-7.45,6.13Z"/>
                  <path class="cls-14" d="M148.19,101.78c-4.29.72-8.19-1.15-8.7-4.18-.51-3.03,2.56-6.07,6.85-6.8,4.29-.72,8.19,1.15,8.7,4.18s-2.56,6.07-6.85,6.8Z"/>
                  <g>
                    <g>
                      <g>
                        <path class="cls-1" d="M169.56,80.53c-1.23-4.39.33-8.81,3.58-10.88.64-.42,1.33-.74,2.09-.95,4.59-1.29,9.52,1.88,11,7.14,1.47,5.23-1.08,10.54-5.67,11.83-2.77.78-5.63-.05-7.77-1.98h-.03c-1.48-1.27-2.61-3.06-3.2-5.16Z"/>
                        <path class="cls-7" d="M169.56,80.53c-1.23-4.39.33-8.81,3.58-10.88,2.69.78,4.9,2.85,5.7,5.67,1.25,4.45-1.47,9.05-6.05,10.36h-.03c-1.48-1.27-2.61-3.06-3.2-5.16Z"/>
                      </g>
                      <g>
                        <path class="cls-1" d="M151.91,84.11c-1.23-4.39.33-8.81,3.58-10.88.64-.42,1.33-.74,2.09-.95,4.59-1.29,9.52,1.88,11,7.14,1.47,5.23-1.08,10.54-5.67,11.83-2.77.78-5.63-.05-7.77-1.98h-.03c-1.48-1.27-2.61-3.06-3.2-5.16Z"/>
                        <path class="cls-7" d="M151.91,84.11c-1.23-4.39.33-8.81,3.58-10.88,2.69.78,4.9,2.85,5.7,5.67,1.25,4.45-1.47,9.05-6.05,10.36h-.03c-1.48-1.27-2.61-3.06-3.2-5.16Z"/>
                      </g>
                    </g>
                    <path class="cls-5" d="M184.83,65.1c-2.5-1.89-6.34-3.38-11.67-1.76"/>
                    <path class="cls-5" d="M157.47,63.81s-7.46-.63-10.16,9.24"/>
                  </g>
                </g>
              </g>
            </g>
            <g>
              <path class="cls-9" d="M66.8,60.56c-5.34-.5-12.18-4.09-14.24-8.1-2.51-4.88-2.37-10.74-1.03-16.06,2.96-11.72,11.78-21.81,23-26.32-2.65,4.49-2.37,10.54.68,14.77-.27-7.31,4.73-14.11,11.19-17.54,6.46-3.43,14.11-3.93,21.38-3.17-2.47,3.06-3.82,7-3.77,10.94,3.18-4.91,9.47-7.05,15.31-6.81,5.84.24,11.39,2.48,16.8,4.68,5.41,2.21,10.96,4.45,16.8,4.7-3.72,6.48-7.5,13.03-12.74,18.36-5.24,5.33-12.19,9.37-19.65,9.58,2.92,2.57,6.36,4.57,10.04,5.83-2.38,4.5-4.8,9.05-8.2,12.84-3.4,3.79-7.93,6.81-12.99,7.37-5.06.56-10.59-1.78-12.87-6.33,1.16,4.58,3.69,8.8,7.18,11.98-4.26,2.79-8.59,5.62-13.44,7.14-4.86,1.52-10.4,1.6-14.81-.95-4.57-2.65-7.27-7.77-8.24-12.96-.61-3.27-.62-6.59-.41-9.92Z"/>
              <path class="cls-2" d="M53.05,68.66c4.41-3.77,8.96-7.38,13.62-10.81-3.4-9.29-2.93-20.01,1.34-28.86-2.66,8.97-2.34,18.61.82,27.33,2.12-1.52,4.25-3.02,6.42-4.47-.01-.07-.04-.12-.04-.2,0-6.23,1.62-12.39,4.3-17.95,1.39-2.76,3.02-5.4,4.94-7.8,1.91-2.41,4.1-4.58,6.5-6.45-7.97,8.37-12.81,19.52-13.58,31.02,7.65-5.01,15.58-9.57,23.75-13.66-.03-.07-.07-.13-.09-.21-1.38-6.85,1.31-14.52,6.68-18.92-3.73,5.44-5.43,11.82-4.97,18.31,3.26-1.6,6.55-3.15,9.88-4.6.56-.25,1.11-.51,1.69-.73,6.97-2.99,14.08-5.63,21.33-7.94.71-.23.95.83.32,1.01-7,2-13.86,4.54-20.52,7.48,4.31,2.11,8.79,3.64,13.58,4.59-5.45.7-11.24-.58-15.91-3.54-8.52,3.91-16.73,8.51-24.54,13.71,7.18,5.89,16.55,8.99,25.92,8.52-9.7,1.93-20.3-.58-28.22-6.65-.07-.06-.12-.14-.18-.21-5.28,3.65-10.35,7.59-15.19,11.8,5.39,6.03,13.09,9.91,21.25,10.63-8.5.64-17.28-2.68-23.41-8.73-4.17,3.75-8.15,7.7-11.92,11.85-3.03,2.45-6.7-2-3.79-4.52Z"/>
            </g>
            <g>
              <path class="cls-6" d="M251.47,58.94c-2.03-1.29-5.02-.75-6.5,1.17.6-2.47-.68-5.26-2.94-6.4-2.25-1.14-5.26-.53-6.91,1.41-.65.76-1.05,1.7-1.22,2.69-1.24-.8-2.78-1.14-4.22-.74-2.79.77-4.58,4.12-3.66,6.86.75,2.23,3.18,3.68,5.5,3.53-1.97.78-3.49,2.72-3.61,4.86-.14,2.67,1.95,5.25,4.58,5.66,2.63.41,5.43-1.41,6.14-3.99.46,2.65,2.94,4.78,5.62,4.85,2.68.07,5.28-1.94,5.91-4.56.63-2.62-.79-5.57-3.22-6.7,2.22.94,5.09-.1,6.21-2.25,1.12-2.15.35-5.09-1.69-6.38Z"/>
              <path class="cls-8" d="M242.42,67.91c-.75,1.18-2.18,1.92-3.58,1.78-1.56-.15-2.96-1.4-3.28-2.94-.33-1.54.43-3.26,1.79-4.06,3.09-1.81,6.77,1.48,5.32,4.75-.07.16-.15.31-.24.46Z"/>
            </g>
            <g>
              <path class="cls-8" d="M232.33,83.95c-1.45-.92-3.57-.54-4.62.83.42-1.76-.49-3.74-2.09-4.55-1.6-.81-3.74-.38-4.91,1-.46.54-.75,1.21-.87,1.91-.88-.57-1.98-.81-3-.53-1.99.54-3.26,2.93-2.6,4.88.54,1.59,2.26,2.62,3.91,2.51-1.4.55-2.48,1.94-2.56,3.45-.1,1.9,1.39,3.73,3.26,4.03,1.87.29,3.86-1,4.36-2.83.33,1.88,2.09,3.4,4,3.45,1.91.05,3.76-1.38,4.2-3.24.45-1.86-.56-3.96-2.29-4.77,1.58.67,3.62-.07,4.42-1.6s.25-3.62-1.2-4.54Z"/>
              <path class="cls-6" d="M225.9,90.33c-.53.84-1.55,1.36-2.54,1.27-1.11-.11-2.1-.99-2.34-2.09-.23-1.09.3-2.32,1.27-2.88,2.2-1.29,4.81,1.05,3.78,3.38-.05.11-.11.22-.17.33Z"/>
            </g>
          </g>
          <g>
            <g class="cls-16">
              <circle class="cls-11" cx="613.76" cy="-54.32" r="58.12" transform="translate(218.17 418.08) rotate(-45)"/>
            </g>
            <g>
              <path class="cls-6" d="M593.89,1.47c-1.45-.92-3.57-.54-4.62.83.42-1.76-.49-3.74-2.09-4.55-1.6-.81-3.74-.38-4.91,1-.46.54-.75,1.21-.87,1.91-.88-.57-1.98-.81-3-.53-1.99.54-3.26,2.93-2.6,4.88.54,1.59,2.26,2.62,3.91,2.51-1.4.55-2.48,1.94-2.56,3.45-.1,1.9,1.39,3.73,3.26,4.03,1.87.29,3.86-1,4.36-2.83.33,1.88,2.09,3.4,4,3.45s3.76-1.38,4.2-3.24c.45-1.86-.56-3.96-2.29-4.77,1.58.67,3.62-.07,4.42-1.6.8-1.53.25-3.62-1.2-4.54Z"/>
              <path class="cls-8" d="M587.45,7.84c-.53.84-1.55,1.36-2.54,1.27-1.11-.11-2.1-.99-2.34-2.09-.23-1.09.3-2.32,1.27-2.88,2.2-1.29,4.81,1.05,3.78,3.38-.05.11-.11.22-.17.33Z"/>
            </g>
          </g>
          <g>
            <g class="cls-16">
              <circle class="cls-11" cx="336.06" cy="91.6" r="58.12" transform="translate(191.82 408.65) rotate(-80.78)"/>
              <circle class="cls-11" cx="473.27" cy="89.21" r="61.08"/>
              <circle class="cls-11" cx="348.12" cy="-50.78" r="61.08" transform="translate(137.87 231.28) rotate(-45)"/>
            </g>
            <g>
              <circle class="cls-8" cx="341.17" cy="28.42" r="47.93" transform="translate(45.52 201.04) rotate(-35.04)"/>
              <path class="cls-17" d="M386.16,45c-5.9,15.95-20.12,28.25-38.13,30.86-26.21,3.79-50.51-14.38-54.3-40.58-1.73-11.95,1.11-23.48,7.22-32.88-2.68,7.24-3.64,15.24-2.45,23.42,3.78,26.19,28.08,44.35,54.29,40.57,14.24-2.06,26.11-10.19,33.37-21.38Z"/>
              <path class="cls-7" d="M347.34,73.63c13.63-1.24,25.28-7.99,33.12-17.77-7.93,11.34-20.7,19.25-35.86,20.37-23.78,1.75-45.57-14.73-50.37-38.09-2.66-12.97.12-25.6,6.71-35.75-.03.09-.06.18-.1.27-.44,1.23-.96,2.42-1.5,3.6-3.81,8.39-5.21,17.97-3.52,27.79,4.2,24.39,26.86,41.82,51.51,39.58Z"/>
              <g>
                <path class="cls-8" d="M347.75,93.15c-.7-5.6.83-12.19,3.85-12.57,3.02-.38,6.38,5.6,7.08,11.2.7,5.6-1.51,8.7-4.53,9.08-3.02.38-5.69-2.11-6.4-7.71Z"/>
                <path class="cls-8" d="M299.81,79.11c3.46-4.46,9.21-8.04,11.61-6.17,2.4,1.87.55,8.47-2.91,12.93-3.46,4.46-7.22,5.08-9.63,3.22-2.4-1.87-2.54-5.52.93-9.97Z"/>
                <path class="cls-8" d="M275.84,35.27c5.6-.7,12.19.83,12.57,3.85.38,3.02-5.6,6.38-11.2,7.08-5.6.7-8.7-1.51-9.08-4.53-.38-3.02,2.11-5.69,7.71-6.4Z"/>
                <path class="cls-8" d="M289.89-12.67c4.46,3.46,8.04,9.21,6.17,11.61-1.87,2.4-8.47.55-12.93-2.91s-5.08-7.22-3.22-9.63c1.87-2.4,5.52-2.54,9.97.93Z"/>
                <path class="cls-8" d="M405.63,21.25c-5.6.7-12.19-.83-12.57-3.85-.38-3.02,5.6-6.38,11.2-7.08,5.6-.7,8.7,1.51,9.08,4.53s-2.11,5.69-7.71,6.4Z"/>
                <path class="cls-8" d="M391.58,69.19c-4.46-3.46-8.04-9.21-6.17-11.61,1.87-2.4,8.47-.55,12.93,2.91,4.46,3.46,5.08,7.22,3.22,9.63-1.87,2.4-5.52,2.54-9.97-.93Z"/>
              </g>
              <g>
                <path class="cls-4" d="M327.86,86.01c.52-3.19,2.44-6.56,4.16-6.28,1.72.28,2.59,4.11,2.07,7.3-.52,3.19-2.25,4.53-3.97,4.25-1.72-.28-2.78-2.08-2.26-5.27Z"/>
                <path class="cls-4" d="M290.79,59.99c2.63-1.89,6.36-2.92,7.38-1.5,1.02,1.42-1.08,4.74-3.7,6.63-2.63,1.89-4.79,1.62-5.81.2s-.5-3.44,2.13-5.33Z"/>
                <path class="cls-4" d="M282.99,15.39c3.19.52,6.56,2.44,6.28,4.16-.28,1.72-4.11,2.59-7.3,2.07-3.19-.52-4.53-2.25-4.25-3.97.28-1.72,2.08-2.78,5.27-2.26Z"/>
                <path class="cls-4" d="M398.48,41.14c-3.19-.52-6.56-2.44-6.28-4.16.28-1.72,4.11-2.59,7.3-2.07,3.19.52,4.53,2.25,4.25,3.97s-2.08,2.78-5.27,2.26Z"/>
                <path class="cls-4" d="M372.46,78.2c-1.89-2.63-2.92-6.36-1.5-7.38s4.74,1.08,6.63,3.7,1.62,4.79.2,5.81-3.44.5-5.33-2.13Z"/>
              </g>
              <g>
                <g>
                  <rect class="cls-7" x="341.94" y="12.51" width="10.9" height="4" transform="translate(1.93 53.85) rotate(-8.89)"/>
                  <g>
                    <path class="cls-7" d="M343.24,12.24c-.52-.85-1.31-1.43-2.3-1.82-.61-.24-1.3-.39-2.04-.48-1.08-.14-2.3-.13-3.61-.03-1.18.06-2.43.22-3.71.43-5.55.87-10.07,2.29-10.65,5.76l-13.73,1.98-2.09.3-1.23.18.75,5.21c.13.91.98,1.55,1.9,1.42.91-.13,1.55-.98,1.42-1.9l-.31-2.15,13.6-1.96c.54,1.99,1.58,3.98,3.35,5.4.74.58,1.59,1.07,2.58,1.44.61.24,1.28.42,2.02.51,1.07.2,2.24.25,3.54.12.46-.02.95-.07,1.45-.15,8.77-1.37,10.51-7.63,9.78-12.33-.12-.76-.35-1.4-.72-1.93Z"/>
                    <g>
                      <path class="cls-1" d="M338.89,9.95l-11.73,16.08c-.99-.36-1.84-.85-2.58-1.44l10.71-14.68c1.31-.1,2.52-.11,3.61.03Z"/>
                      <path class="cls-1" d="M343.24,12.24l-10.51,14.41c-1.3.13-2.47.08-3.54-.12l11.75-16.11c.99.39,1.78.96,2.3,1.82Z"/>
                    </g>
                  </g>
                  <g>
                    <path class="cls-7" d="M372.01,9.79c.74,4.7-1.01,10.96-9.78,12.33-.51.08-.99.13-1.45.15-1.3.13-2.47.08-3.54-.12-.74-.09-1.42-.27-2.02-.51-.99-.36-1.84-.85-2.58-1.44-2.19-1.76-3.28-4.38-3.66-6.81-.74-4.73,4.28-6.44,10.65-7.44,1.29-.2,2.53-.37,3.71-.43,1.31-.1,2.52-.11,3.61.03.74.09,1.44.24,2.04.48.99.39,1.78.96,2.3,1.82.37.54.6,1.18.72,1.93Z"/>
                    <g>
                      <path class="cls-1" d="M366.94,5.56l-11.73,16.08c-.99-.36-1.84-.85-2.58-1.44l10.71-14.68c1.31-.1,2.52-.11,3.61.03Z"/>
                      <path class="cls-1" d="M371.29,7.86l-10.51,14.41c-1.3.13-2.47.08-3.54-.12l11.75-16.11c.99.39,1.78.96,2.3,1.82Z"/>
                    </g>
                  </g>
                </g>
                <g>
                  <path class="cls-14" d="M384.05,24.95c.49,3.12-2.61,6.2-6.92,6.88s-8.2-1.31-8.69-4.44c-.49-3.12,2.61-6.2,6.92-6.88,4.31-.67,8.2,1.31,8.69,4.44Z"/>
                  <path class="cls-14" d="M325.99,34.03c.49,3.12-2.61,6.2-6.92,6.88-4.31.67-8.2-1.31-8.69-4.44s2.61-6.2,6.92-6.88,8.2,1.31,8.69,4.44Z"/>
                </g>
                <g>
                  <path class="cls-8" d="M344.6,23.78s2.02-2.92,5-2.37c3.68.68,4.46,3.68,2.76,7.28,0,0,9.88,1.94,1.98,10.21"/>
                  <path class="cls-14" d="M350.3,24.18c.07.47-.82.98-1.97,1.14-1.16.17-2.15-.07-2.21-.54-.07-.46.82-.98,1.97-1.14,1.16-.17,2.15.07,2.21.54Z"/>
                </g>
              </g>
            </g>
            <g>
              <path class="cls-8" d="M466.15,36.84c-10.74,2.07-14.61-32.85-16.7-43.69-2.09-10.84,1.6-10.92,6-11.77,4.4-.85,7.86-2.15,9.95,8.69,2.09,10.84,10.77,44.83.76,46.77Z"/>
              <path class="cls-7" d="M452.29,9.56c-1.26-6.63-2.15-12.83-2.84-16.41-2.09-10.84,1.59-10.92,6-11.77,4.4-.85,7.86-2.15,9.95,8.69.69,3.58,2.1,9.68,3.31,16.32l-16.42,3.17Z"/>
              <g>
                <path class="cls-4" d="M418.75-20.54c5.59,28.96,20.93,24.31,40.23,20.59,19.31-3.73,35.27-5.12,29.68-34.08-5.59-28.96-14.44-77.64-49.92-70.79-31.54,6.09-25.58,55.33-19.99,84.29Z"/>
                <path class="cls-12" d="M418.75-20.54c5.59,28.95,20.92,24.33,40.24,20.6,17.37-3.35,32.04-4.84,30.7-26.22-7.22,8.75-16.83,14.91-28.03,17.07-15.5,2.99-30.98-2.22-43.18-13,.08.53.18,1.05.28,1.55Z"/>
              </g>
            </g>
            <g>
              <path class="cls-9" d="M528.7,35.86c3.11,3.98,9.42,7.58,13.65,7.18,5.14-.49,9.72-3.57,13.26-7.34,7.79-8.3,11.31-20.41,9.19-31.59-2.21,4.38-7.15,7.23-12.05,6.95,5.93-3.49,8.79-10.91,8.22-17.77-.56-6.86-4.04-13.18-8.34-18.56-1.18,3.51-3.61,6.58-6.76,8.53,2.28-5.01.79-11.09-2.37-15.59s-7.74-7.77-12.24-10.94c-4.5-3.17-9.09-6.43-12.25-10.93-3.25,6.24-6.52,12.56-8.09,19.42-1.56,6.86-1.25,14.42,2.38,20.44-3.52-1.01-6.85-2.72-9.72-5-2.36,4.17-4.73,8.4-6.01,13.01-1.28,4.62-1.37,9.74.75,14.03,2.13,4.29,6.79,7.5,11.55,6.99-4.22,1.4-8.85,1.54-13.14.38-.05,4.79-.09,9.66,1.16,14.28,1.26,4.62,4.01,9.06,8.27,11.25,4.42,2.28,9.85,1.82,14.46-.04,2.9-1.17,5.54-2.85,8.07-4.7Z"/>
              <path class="cls-2" d="M529.25,50.87c.75-5.41,1.3-10.84,1.66-16.28,9.09-2.02,17.35-7.83,22.2-15.71-5.76,6.66-13.57,11.3-22.08,13.21.13-2.45.23-4.9.29-7.35.06-.02.12-.03.18-.07,4.94-3.16,9-7.58,12.05-12.52,1.49-2.5,2.75-5.13,3.68-7.87.94-2.74,1.55-5.57,1.81-8.42-2.59,10.57-8.97,20.06-17.7,26.51.09-8.6-.32-17.21-1.22-25.76.07,0,.14,0,.21-.04,6.13-2.38,10.85-8.41,11.6-14.9-2.42,5.72-6.62,10.3-11.99,13.23-.39-3.4-.82-6.79-1.37-10.17-.08-.57-.16-1.14-.28-1.71-1.17-7.05-2.68-14.02-4.54-20.94-.18-.68-1.15-.33-.96.26,1.97,6.57,3.44,13.29,4.49,20.06-3.86-2.35-7.34-5.13-10.53-8.43,2.21,4.68,6.17,8.62,10.88,10.81,1.22,8.74,1.75,17.58,1.58,26.41-8.31-2.7-15.53-8.55-19.91-16.22,3.39,8.67,10.76,15.8,19.59,18.99.08.03.17.02.25.04-.22,6.04-.77,12.06-1.65,18.03-7.51-1.22-14.5-5.35-19.22-11.45,3.81,7.07,10.89,12.34,18.8,14.12-.86,5.21-1.97,10.37-3.34,15.46-.41,3.64,4.98,4.3,5.5.71Z"/>
            </g>
            <g>
              <g>
                <path class="cls-3" d="M425.79,63.03l10.18-.65c-.23-1.13-.45-2.29-.63-3.53-1.04-7.35-.49-13.51,1.23-13.76,1.72-.24,3.96,5.52,5,12.87.07.47.11.92.16,1.38.04-.15.07-.3.11-.45,1.86-7.19,4.74-12.66,6.42-12.23,1.68.44,1.54,6.62-.33,13.81-.1.4-.22.77-.33,1.16h0c-7.5,26.97-4.4,38.09,7.91,35.47l-20.11,24.12s-27.4-9.55-9.63-58.19Z"/>
                <g>
                  <path class="cls-3" d="M423.79,61.34c-.68,2.61.26,5.11,2.1,5.59,1.84.48,2.84-1.52,3.52-4.13.68-2.61.77-4.84-1.06-5.32s-3.87,1.25-4.55,3.86Z"/>
                  <path class="cls-3" d="M428.61,62.46c-.68,2.61.26,5.11,2.1,5.59s2.84-1.52,3.52-4.13c.68-2.61.77-4.84-1.06-5.32-1.84-.48-3.87,1.25-4.55,3.86Z"/>
                </g>
                <path class="cls-3" d="M441.03,66.09s-1.4-1.99-3.16-3.68c-3.02-2.9-7.86.53-6.07,4.32.52,1.1,1.45,2.29,2.96,3.54,0,0-2.4,1.24-3.19,4.56"/>
              </g>
              <g>
                <g>
                  <path class="cls-9" d="M525.46,156.99c-42.85,18.75-79.23,9.16-109.23-28.45-1.12-1.4-1.38-3.39-.49-4.94,1.21-2.12,3.22-3.65,6.14-4.51,28.69,33.95,63.11,42.9,103.28,26.57,1.85,2.12,2.9,4.43,3.04,6.95.11,1.87-1.02,3.63-2.74,4.38Z"/>
                  <path class="cls-2" d="M525.16,145.66c-40.17,16.32-74.59,7.37-103.28-26.57l4.68-4.83c27.2,29.7,59.35,37.64,96.52,23.63l2.08,7.77Z"/>
                  <path class="cls-4" d="M523.07,137.89c-37.17,14.01-69.32,6.07-96.52-23.63l70.72-72.7,25.8,96.33Z"/>
                  <path class="cls-12" d="M523.07,137.89c-37.17,14.01-69.32,6.07-96.52-23.63l70.72-72.7,25.8,96.33Z"/>
                  <path class="cls-13" d="M523.07,137.9c-34.09,12.85-63.98,7.23-89.67-16.72,6.71,3.84,14.09,6.86,21.99,8.91,22.7,5.89,45.42,2.59,63.58-7.47l4.1,15.29Z"/>
                </g>
                <g>
                  <path class="cls-7" d="M503.77,131.97c-.35-3.45.69-7.47,2.55-7.66,1.86-.19,3.83,3.53,4.18,6.98.35,3.45-1.06,5.32-2.92,5.5-1.86.19-3.46-1.38-3.81-4.83Z"/>
                  <path class="cls-7" d="M494.81,79.54c-.35-3.45.69-7.47,2.55-7.66,1.86-.19,3.83,3.53,4.18,6.98s-1.06,5.32-2.92,5.5c-1.86.19-3.46-1.38-3.81-4.83Z"/>
                  <path class="cls-7" d="M470.01,130.04c.77-3.38,3.05-6.86,4.87-6.44,1.82.42,2.5,4.57,1.73,7.95-.77,3.38-2.71,4.7-4.53,4.28-1.82-.42-2.84-2.41-2.07-5.79Z"/>
                  <path class="cls-7" d="M460.09,117.27c1.36-3.19,4.22-6.21,5.93-5.47,1.72.73,1.65,4.94.29,8.13-1.36,3.19-3.5,4.14-5.21,3.41-1.72-.73-2.36-2.88-1-6.07Z"/>
                  <path class="cls-7" d="M488.3,61.03c1.08-3.29,3.67-6.54,5.44-5.96,1.77.58,2.07,4.78.98,8.07s-3.13,4.43-4.9,3.84c-1.77-.58-2.6-2.67-1.52-5.96Z"/>
                  <path class="cls-7" d="M488.55,124.85c.33-3.45,2.12-7.2,3.98-7.02,1.86.18,3.07,4.21,2.75,7.66-.33,3.45-2.07,5.01-3.93,4.84-1.86-.18-3.13-2.02-2.8-5.47Z"/>
                  <path class="cls-7" d="M442.3,113.87c1.93-2.88,5.3-5.31,6.85-4.27,1.55,1.04.69,5.16-1.24,8.04s-4.21,3.42-5.76,2.37-1.78-3.27.15-6.15Z"/>
                  <path class="cls-7" d="M472.58,72.92c1.93-2.88,5.3-5.31,6.85-4.27s.69,5.16-1.24,8.04-4.21,3.42-5.76,2.37-1.78-3.27.15-6.15Z"/>
                </g>
                <g>
                  <g>
                    <g>
                      <path class="cls-1" d="M483.29,94.66c.63-4.09,3.58-7.15,7.04-7.63.68-.11,1.38-.11,2.08,0,4.27.66,7.15,5.13,6.39,10.03-.75,4.87-4.85,8.29-9.12,7.63-2.58-.4-4.62-2.15-5.67-4.55h-.03c-.74-1.61-1-3.52-.7-5.47Z"/>
                      <path class="cls-7" d="M483.29,94.66c.63-4.09,3.58-7.15,7.04-7.63,1.93,1.66,2.98,4.19,2.57,6.82-.64,4.14-4.61,6.91-8.89,6.28h-.03c-.74-1.61-1-3.52-.7-5.47Z"/>
                    </g>
                    <g>
                      <path class="cls-1" d="M467.38,90.98c.63-4.09,3.58-7.15,7.04-7.63.68-.11,1.38-.11,2.08,0,4.27.66,7.15,5.13,6.39,10.03-.75,4.87-4.85,8.29-9.12,7.63-2.58-.4-4.62-2.15-5.67-4.56h-.03c-.74-1.61-1-3.52-.7-5.47Z"/>
                      <path class="cls-7" d="M467.38,90.98c.63-4.09,3.58-7.15,7.04-7.63,1.93,1.66,2.98,4.19,2.57,6.82-.64,4.14-4.61,6.91-8.89,6.28h-.03c-.74-1.61-1-3.52-.7-5.47Z"/>
                    </g>
                  </g>
                  <path class="cls-5" d="M486.12,106.86s-7.31,7.02-14.37-.82"/>
                  <g>
                    <path class="cls-10" d="M502.7,114.75c-3.82-.99-6.35-3.98-5.65-6.68.7-2.7,4.37-4.08,8.19-3.09,3.82.99,6.35,3.98,5.65,6.68-.7,2.7-4.37,4.08-8.19,3.09Z"/>
                    <path class="cls-10" d="M456.05,104.56c-3.67-1.45-5.82-4.73-4.8-7.32,1.02-2.59,4.83-3.52,8.5-2.07,3.67,1.45,5.82,4.73,4.8,7.32-1.02,2.59-4.83,3.52-8.5,2.07Z"/>
                  </g>
                </g>
                <path class="cls-7" d="M525.46,157c-27.12,11.86-51.66,12.37-73.61,1.61,1.97.67,3.96,1.29,6.01,1.82,27.06,7.02,53.67-1.65,65.96-19.75l1.34,5c1.86,2.13,2.91,4.42,3.05,6.95.11,1.87-1.04,3.61-2.74,4.38Z"/>
              </g>
              <path class="cls-6" d="M493.03,111.78c.11.61.38,1.29.74,2,.77,1.39,2.09,2.93,3.82,4.35,1.54,1.3,3.4,2.52,5.51,3.6,2.11,1.07,4.19,1.86,6.15,2.34,2.17.55,4.18.72,5.77.52.78-.12,1.5-.31,2.05-.58-3.01-3.29-6.67-6.12-10.92-8.28-4.24-2.16-8.69-3.46-13.12-3.95Z"/>
              <g>
                <path class="cls-3" d="M482.04,155.8c-.69-.17-1.9-.63-2.11-1.78-.03-.16-.17-2.39,2.16-2.5,1.36-.07,3.29.26,5.08.67,1.14.26,3.58,1.06,4.7.57,1.36-.59,1.15-2.56-1-3.09,0,0-3.97-.81-2.95-3.19.77-2.63,5.93-.9,11.5,1.05,10.43-4.95,16.87-10.81,19.09-17.64.88-2.71.86-5.64.14-8.4l-1.59-6.03s19.86,11.57,13.46,30.84c-.84,2.53-2.15,4.87-3.71,7.04-4.78,6.62-12.84,14.53-35.17,15.87-2.5.15-9.12-.29-8.85-2.72.08-.72.45-1.48,2.08-1.79,0,0-6.49.43-4.83-4.4,0,0-2.71-.48-2.21-2.91,0,0,.32-2.49,4.22-1.58Z"/>
                <g>
                  <path class="cls-5" d="M482.04,155.8c1.93.64,4.43,1.29,6.88,1.7"/>
                  <path class="cls-5" d="M480.05,160.3c1.93.64,5.62,1.14,7.98.79"/>
                  <path class="cls-5" d="M484.87,164.69s1.15.01,2.73.06"/>
                </g>
              </g>
            </g>
            <g>
              <path class="cls-8" d="M538.17,63.78c-1.83-1.17-4.53-.68-5.87,1.06.54-2.23-.62-4.74-2.65-5.77-2.03-1.03-4.75-.48-6.23,1.27-.59.69-.95,1.54-1.1,2.42-1.12-.72-2.51-1.03-3.81-.67-2.52.69-4.13,3.72-3.3,6.19.68,2.02,2.87,3.32,4.96,3.19-1.77.7-3.15,2.46-3.25,4.38-.13,2.4,1.76,4.74,4.13,5.11,2.37.37,4.9-1.27,5.54-3.6.42,2.39,2.65,4.31,5.07,4.37,2.42.06,4.77-1.75,5.33-4.11.57-2.36-.71-5.02-2.9-6.05,2,.85,4.59-.09,5.6-2.03,1.01-1.94.31-4.59-1.52-5.76Z"/>
              <path class="cls-6" d="M530.01,71.87c-.68,1.07-1.97,1.73-3.23,1.61-1.41-.14-2.67-1.26-2.96-2.65s.39-2.94,1.61-3.66c2.79-1.64,6.1,1.33,4.8,4.29-.06.14-.14.28-.22.41Z"/>
            </g>
            <g>
              <path class="cls-6" d="M401.54,112.23c-2.03-1.29-5.02-.75-6.5,1.17.6-2.47-.68-5.26-2.94-6.4-2.25-1.14-5.26-.53-6.91,1.41-.65.76-1.05,1.7-1.22,2.69-1.24-.8-2.78-1.14-4.22-.74-2.79.77-4.58,4.12-3.66,6.86.75,2.23,3.18,3.68,5.5,3.53-1.97.78-3.49,2.72-3.61,4.86-.14,2.67,1.95,5.25,4.58,5.66,2.63.41,5.43-1.41,6.14-3.99.46,2.65,2.94,4.78,5.62,4.85,2.68.07,5.28-1.94,5.91-4.56.63-2.62-.79-5.57-3.22-6.7,2.22.94,5.09-.1,6.21-2.25,1.12-2.15.35-5.09-1.69-6.38Z"/>
              <path class="cls-8" d="M392.48,121.2c-.75,1.18-2.18,1.92-3.58,1.78-1.56-.15-2.96-1.4-3.28-2.94s.43-3.26,1.79-4.06c3.09-1.81,6.77,1.48,5.32,4.75-.07.16-.15.31-.24.46Z"/>
            </g>
            <g>
              <path class="cls-6" d="M316.19,147.38c-1.45-.92-3.57-.54-4.62.83.42-1.76-.49-3.74-2.09-4.55-1.6-.81-3.74-.38-4.91,1-.46.54-.75,1.21-.87,1.91-.88-.57-1.98-.81-3-.53-1.99.54-3.26,2.93-2.6,4.88.54,1.59,2.26,2.62,3.91,2.51-1.4.55-2.48,1.94-2.56,3.45-.1,1.9,1.39,3.73,3.26,4.03,1.87.29,3.86-1,4.36-2.83.33,1.88,2.09,3.4,4,3.45,1.91.05,3.76-1.38,4.2-3.24.45-1.86-.56-3.96-2.29-4.77,1.58.67,3.62-.07,4.42-1.6.8-1.53.25-3.62-1.2-4.54Z"/>
              <path class="cls-8" d="M309.76,153.76c-.53.84-1.55,1.36-2.54,1.27-1.11-.11-2.1-.99-2.34-2.09-.23-1.09.3-2.32,1.27-2.88,2.2-1.29,4.81,1.05,3.78,3.38-.05.11-.11.22-.17.33Z"/>
            </g>
            <g>
              <path class="cls-4" d="M338.48,133.35c-.62-2.3-3.16-3.9-5.53-3.49,2.08-1.4,3.01-4.29,2.13-6.63-.88-2.34-3.49-3.9-5.98-3.59-.98.12-1.91.54-2.69,1.14-.37-1.41-1.27-2.69-2.58-3.36-2.55-1.31-6.09-.05-7.25,2.57-.94,2.13-.14,4.81,1.65,6.25-1.96-.74-4.37-.34-5.87,1.14-1.88,1.85-2.08,5.14-.44,7.19,1.64,2.05,4.9,2.6,7.14,1.19-1.43,2.24-1.05,5.45.87,7.29,1.91,1.84,5.15,2.11,7.36.62,2.21-1.49,3.14-4.59,2.13-7.04.99,2.17,3.78,3.32,6.04,2.5,2.26-.82,3.65-3.48,3.03-5.78Z"/>
              <path class="cls-8" d="M328.52,132.04c-.91,1.43-2.65,2.33-4.34,2.16-1.9-.19-3.58-1.69-3.98-3.56-.4-1.87.52-3.95,2.17-4.92,3.74-2.2,8.2,1.79,6.45,5.76-.09.19-.18.38-.3.55Z"/>
            </g>
          </g>
          <g>
            <g class="cls-16">
              <circle class="cls-11" cx="58.37" cy="-54.32" r="58.12" transform="translate(97.63 15.08) rotate(-76.56)"/>
              <circle class="cls-11" cx="195.57" cy="-56.7" r="61.08"/>
            </g>
            <g>
              <g>
                <g>
                  <path class="cls-9" d="M247.76,11.08c-42.85,18.75-79.23,9.16-109.23-28.45-1.12-1.4-1.38-3.39-.49-4.94,1.21-2.12,3.22-3.65,6.14-4.51C172.88,7.12,207.3,16.07,247.47-.25c1.85,2.12,2.9,4.43,3.04,6.95.11,1.87-1.02,3.63-2.74,4.38Z"/>
                  <path class="cls-2" d="M247.47-.25c-40.17,16.32-74.59,7.37-103.28-26.57l4.68-4.83C176.06-1.95,208.21,5.99,245.38-8.02l2.08,7.77Z"/>
                </g>
                <path class="cls-7" d="M247.77,11.09c-27.12,11.86-51.66,12.37-73.61,1.61,1.97.67,3.96,1.29,6.01,1.82,27.06,7.02,53.67-1.65,65.96-19.75l1.34,5c1.86,2.13,2.91,4.42,3.05,6.95.11,1.87-1.04,3.61-2.74,4.38Z"/>
              </g>
              <g>
                <path class="cls-8" d="M177.03-13.44c-9.59,18.84-2.1,41.85,16.74,51.43,18.84,9.59,41.84,2.1,51.43-16.74,7.43-14.59,4.59-31.72-5.82-43.15-3.01-3.29-6.67-6.12-10.92-8.28-4.24-2.16-8.69-3.46-13.12-3.95-15.37-1.69-30.89,6.1-38.31,20.69Z"/>
                <ellipse class="cls-1" cx="211.11" cy="3.91" rx="38.24" ry="27.2" transform="translate(111.88 190.29) rotate(-63.03)"/>
                <path class="cls-8" d="M200.29-1.6c-9.58,18.82-12.5,36.55-6.52,39.59s18.59-9.75,28.17-28.58c9.58-18.82,12.5-36.55,6.52-39.59-5.98-3.04-18.59,9.75-28.17,28.58Z"/>
              </g>
              <g>
                <path class="cls-3" d="M204.35,9.89c-.69-.17-1.9-.63-2.11-1.78-.03-.16-.17-2.39,2.16-2.5,1.36-.07,3.29.26,5.08.67,1.14.26,3.58,1.06,4.7.57,1.36-.59,1.15-2.56-1-3.09,0,0-3.97-.81-2.95-3.19.77-2.63,5.93-.9,11.5,1.05,10.43-4.95,16.87-10.81,19.09-17.64.88-2.71.86-5.64.14-8.4l-1.59-6.03s19.86,11.57,13.46,30.84c-.84,2.53-2.15,4.87-3.71,7.04-4.78,6.62-12.84,14.53-35.17,15.87-2.5.15-9.12-.29-8.85-2.72.08-.72.45-1.48,2.08-1.79,0,0-6.49.43-4.83-4.4,0,0-2.71-.48-2.21-2.91,0,0,.32-2.49,4.22-1.58Z"/>
                <g>
                  <path class="cls-5" d="M204.35,9.89c1.93.64,4.43,1.29,6.88,1.7"/>
                  <path class="cls-5" d="M202.36,14.39c1.93.64,5.62,1.14,7.98.79"/>
                  <path class="cls-5" d="M207.18,18.77s1.15.01,2.73.06"/>
                </g>
              </g>
            </g>
          </g>
        </g>
      </g>
      <rect class="cls-15" x=".25" y=".03" width="1279.75" height="359.33"/>
    </g>
  </g>
</svg>