<?xml version="1.0" encoding="UTF-8"?>
<svg xmlns="http://www.w3.org/2000/svg" viewBox="0 0 100.09 192.97">
  <defs>
    <style>
      .cls-1 {
        fill: #fff;
      }

      .cls-1, .cls-2, .cls-3, .cls-4, .cls-5 {
        stroke: #162041;
        stroke-linecap: round;
        stroke-linejoin: round;
        stroke-width: 1.44px;
      }

      .cls-6 {
        isolation: isolate;
      }

      .cls-2 {
        fill: none;
      }

      .cls-3 {
        fill: #ffa400;
      }

      .cls-4 {
        fill: #162041;
      }

      .cls-7 {
        mix-blend-mode: multiply;
      }

      .cls-7, .cls-5 {
        fill: #ffa9a3;
      }

      .cls-8 {
        fill: #ffe8e9;
      }

      .cls-9 {
        opacity: .44;
      }
    </style>
  </defs>
  <g class="cls-6">
    <g id="Calque_1" data-name="Calque 1">
      <g>
        <path class="cls-3" d="M38.42,192.21c-14.5-1.71-5.3-47.68-3.57-62.31,1.72-14.63,6.45-13.24,12.39-12.54,5.94.7,10.86.45,9.14,15.08-1.72,14.63-4.44,61.36-17.95,59.77Z"/>
        <path class="cls-4" d="M31.82,151.92c1.08-8.94,2.46-17.18,3.03-22.01,1.72-14.63,6.45-13.24,12.39-12.54,5.94.7,10.86.45,9.14,15.08-.57,4.83-1.25,13.16-2.39,22.09l-22.17-2.61Z"/>
        <g>
          <path class="cls-5" d="M1.35,100.08c-4.61,39.09,16.78,39.38,42.83,42.45,26.06,3.07,46.92,7.75,51.53-31.33C100.31,72.11,108.75,6.63,60.86.99,18.29-4.02,5.95,61,1.35,100.08Z"/>
          <path class="cls-7" d="M1.35,100.08c-4.6,39.07,16.76,39.39,42.83,42.46,23.45,2.76,42.7,6.8,49.64-20.92-12.73,8.2-27.43,12.15-42.55,10.37-20.92-2.46-38.49-15.35-49.65-33.99-.11.7-.19,1.4-.27,2.08Z"/>
          <g class="cls-9">
            <path class="cls-7" d="M56.43,99.6c-3.14,26.65,1.8,25.72,7.68,26.41,5.88.69,10.47,2.75,13.61-23.9,3.14-26.65,8.57-71.33-2.24-72.61-9.6-1.13-15.91,43.45-19.05,70.1Z"/>
            <path class="cls-7" d="M19.89,95.3c-3.14,26.65,1.8,25.72,7.68,26.41,5.88.69,10.47,2.75,13.61-23.9,3.14-26.65,8.57-71.33-2.24-72.61-9.6-1.13-15.91,43.45-19.05,70.1Z"/>
          </g>
        </g>
        <g>
          <g>
            <path class="cls-4" d="M36.12,74.28c-.4,2.21.42,4.47,1.77,6.28.08.14.17.26.27.37,3.01,3.79,7.92,5.65,12.71,6.24,3.19.39,6.5.29,9.49-.8.91-.33,1.8-.81,2.64-1.39,3.77-2.59,6.44-7.35,3.46-11.59-2.49-3.6-6.61-1.09-9.96-.6-4.01.57-8.19.15-11.9-1.57-2.19-1.02-4.7-1.4-6.46-.33-.99.6-1.72,1.68-2.01,3.39Z"/>
            <path class="cls-5" d="M37.89,80.56c.08.14.17.26.27.37,3.01,3.79,7.92,5.65,12.71,6.24,3.19.39,6.5.29,9.49-.8.91-.33,1.8-.81,2.64-1.39-1.85-2.63-4.97-5-8.86-6.47-6.69-2.53-13.43-1.55-16.25,2.04Z"/>
          </g>
          <g>
            <path class="cls-8" d="M83.21,82.98c-5.65-1.35-9.46-5.68-8.51-9.67.95-3.99,6.31-6.13,11.96-4.78,5.65,1.35,9.46,5.68,8.51,9.67-.95,3.99-6.31,6.13-11.96,4.78Z"/>
            <path class="cls-8" d="M19.96,72.96c-5.75-.82-9.95-4.77-9.37-8.83.58-4.06,5.71-6.69,11.46-5.87,5.75.82,9.95,4.77,9.37,8.83-.58,4.06-5.71,6.69-11.46,5.87Z"/>
            <g>
              <g>
                <g>
                  <path class="cls-1" d="M55.72,54.58c.21-6.08,3.98-11.08,8.95-12.38.98-.28,1.99-.4,3.04-.36,6.35.22,11.35,6.24,11.1,13.53-.25,7.25-5.64,12.96-11.99,12.74-3.84-.13-7.14-2.34-9.08-5.66h-.04c-1.36-2.22-2.08-4.96-1.98-7.87Z"/>
                  <path class="cls-4" d="M55.72,54.58c.21-6.08,3.98-11.08,8.95-12.38,3.11,2.08,5.09,5.6,4.95,9.52-.21,6.16-5.53,10.91-11.88,10.73h-.04c-1.36-2.22-2.08-4.96-1.98-7.87Z"/>
                </g>
                <g>
                  <path class="cls-1" d="M31.83,51.99c.21-6.08,3.98-11.08,8.95-12.38.98-.28,1.99-.4,3.04-.36,6.35.22,11.35,6.24,11.1,13.53-.25,7.25-5.64,12.96-11.99,12.74-3.84-.13-7.14-2.34-9.08-5.66h-.04c-1.36-2.22-2.08-4.96-1.98-7.87Z"/>
                  <path class="cls-4" d="M31.83,51.99c.21-6.08,3.98-11.08,8.95-12.38,3.11,2.08,5.09,5.6,4.95,9.52-.21,6.16-5.53,10.91-11.88,10.73h-.04c-1.36-2.22-2.08-4.96-1.98-7.87Z"/>
                </g>
              </g>
              <path class="cls-2" d="M81.38,41.15c-2.42-3.42-6.69-6.86-14.13-6.95"/>
              <path class="cls-2" d="M47.12,28.43s-9.23-3.82-16.66,7.64"/>
            </g>
          </g>
        </g>
      </g>
    </g>
  </g>
</svg>