<?xml version="1.0" encoding="UTF-8"?>
<svg xmlns="http://www.w3.org/2000/svg" viewBox="0 0 194.4 194.4">
  <defs>
    <style>
      .cls-1 {
        fill: #fff;
      }

      .cls-1, .cls-2, .cls-3, .cls-4 {
        stroke: #162041;
        stroke-linecap: round;
        stroke-linejoin: round;
        stroke-width: .87px;
      }

      .cls-2, .cls-5 {
        fill: #ffa400;
      }

      .cls-3 {
        fill: #162041;
      }

      .cls-6 {
        isolation: isolate;
      }

      .cls-4 {
        fill: #ffa9a3;
      }

      .cls-7 {
        fill: #ffe8e9;
      }

      .cls-5 {
        mix-blend-mode: multiply;
        opacity: .3;
      }
    </style>
  </defs>
  <g class="cls-6">
    <g id="Calque_1" data-name="Calque 1">
      <g>
        <circle class="cls-2" cx="97.78" cy="97.41" r="63.85" transform="translate(-38.21 73.8) rotate(-35.04)"/>
        <path class="cls-5" d="M157.71,119.5c-7.86,21.24-26.81,37.64-50.8,41.1-34.91,5.04-67.28-19.15-72.33-54.07-2.3-15.92,1.48-31.28,9.61-43.8-3.57,9.64-4.84,20.3-3.27,31.2,5.04,34.89,37.41,59.09,72.33,54.04,18.97-2.74,34.79-13.58,44.46-28.48Z"/>
        <path class="cls-3" d="M106,157.63c18.16-1.65,33.68-10.64,44.12-23.67-10.57,15.11-27.58,25.65-47.77,27.14-31.67,2.34-60.71-19.62-67.09-50.74-3.55-17.28.16-34.11,8.94-47.63-.04.12-.09.24-.13.36-.58,1.63-1.28,3.22-2,4.8-5.07,11.18-6.94,23.93-4.69,37.01,5.59,32.49,35.79,55.71,68.62,52.72Z"/>
        <g>
          <path class="cls-2" d="M106.54,183.64c-.94-7.46,1.1-16.25,5.12-16.75,4.02-.51,8.5,7.46,9.44,14.92.94,7.46-2.02,11.59-6.04,12.1-4.02.51-7.58-2.81-8.52-10.27Z"/>
          <path class="cls-2" d="M42.68,164.93c4.61-5.94,12.27-10.71,15.47-8.22,3.2,2.49.74,11.28-3.88,17.22-4.61,5.94-9.62,6.77-12.83,4.29-3.2-2.49-3.38-7.35,1.23-13.29Z"/>
          <path class="cls-2" d="M10.75,106.54c7.46-.94,16.25,1.1,16.75,5.12.51,4.02-7.46,8.5-14.92,9.44-7.46.94-11.59-2.02-12.1-6.04-.51-4.02,2.81-7.58,10.27-8.52Z"/>
          <path class="cls-2" d="M29.47,42.68c5.94,4.61,10.71,12.27,8.22,15.47-2.49,3.2-11.28.74-17.22-3.88s-6.77-9.62-4.29-12.83c2.49-3.2,7.35-3.38,13.29,1.23Z"/>
          <path class="cls-2" d="M87.86,10.75c.94,7.46-1.1,16.25-5.12,16.75-4.02.51-8.5-7.46-9.44-14.92-.94-7.46,2.02-11.59,6.04-12.1,4.02-.51,7.58,2.81,8.52,10.27Z"/>
          <path class="cls-2" d="M151.72,29.47c-4.61,5.94-12.27,10.71-15.47,8.22-3.2-2.49-.74-11.28,3.88-17.22,4.61-5.94,9.62-6.77,12.83-4.29,3.2,2.49,3.38,7.35-1.23,13.29Z"/>
          <path class="cls-2" d="M183.64,87.86c-7.46.94-16.25-1.1-16.75-5.12-.51-4.02,7.46-8.5,14.92-9.44s11.59,2.02,12.1,6.04-2.81,7.58-10.27,8.52Z"/>
          <path class="cls-2" d="M164.93,151.72c-5.94-4.61-10.71-12.27-8.22-15.47,2.49-3.2,11.28-.74,17.22,3.88,5.94,4.61,6.77,9.62,4.29,12.83-2.49,3.2-7.35,3.38-13.29-1.23Z"/>
        </g>
        <g>
          <path class="cls-4" d="M80.04,174.13c.7-4.25,3.25-8.74,5.54-8.37,2.29.38,3.45,5.48,2.75,9.73-.7,4.25-2.99,6.04-5.28,5.66-2.29-.38-3.71-2.78-3.01-7.03Z"/>
          <path class="cls-4" d="M30.67,139.47c3.5-2.51,8.48-3.88,9.83-2,1.35,1.89-1.43,6.32-4.93,8.83-3.5,2.51-6.39,2.15-7.74.27s-.66-4.59,2.84-7.1Z"/>
          <path class="cls-4" d="M20.27,80.05c4.25.7,8.74,3.25,8.37,5.54-.38,2.29-5.48,3.45-9.73,2.75-4.25-.7-6.04-2.99-5.66-5.28.38-2.29,2.78-3.71,7.03-3.01Z"/>
          <path class="cls-4" d="M54.93,30.67c2.51,3.5,3.88,8.48,2,9.83-1.89,1.35-6.32-1.43-8.83-4.93-2.51-3.5-2.15-6.39-.27-7.74,1.89-1.35,4.58-.66,7.1,2.84Z"/>
          <path class="cls-4" d="M114.35,20.27c-.7,4.25-3.25,8.74-5.54,8.37-2.29-.38-3.45-5.48-2.75-9.73.7-4.25,2.99-6.04,5.28-5.66,2.29.38,3.71,2.78,3.01,7.03Z"/>
          <path class="cls-4" d="M163.72,54.93c-3.5,2.51-8.48,3.88-9.83,2s1.43-6.32,4.93-8.83c3.5-2.51,6.39-2.15,7.74-.27s.66,4.58-2.84,7.1Z"/>
          <path class="cls-4" d="M174.13,114.35c-4.25-.7-8.74-3.25-8.36-5.54.38-2.29,5.48-3.45,9.73-2.75,4.25.7,6.04,2.99,5.66,5.28s-2.78,3.71-7.03,3.01Z"/>
          <path class="cls-4" d="M139.46,163.73c-2.51-3.5-3.88-8.48-2-9.83s6.32,1.43,8.83,4.93c2.51,3.5,2.15,6.39.27,7.74-1.89,1.35-4.59.66-7.1-2.84Z"/>
        </g>
        <g>
          <g>
            <rect class="cls-3" x="98.8" y="76.22" width="14.52" height="5.33" transform="translate(-10.92 17.33) rotate(-8.89)"/>
            <g>
              <path class="cls-3" d="M100.54,75.86c-.69-1.13-1.75-1.9-3.07-2.42-.81-.32-1.74-.52-2.72-.64-1.44-.19-3.06-.18-4.8-.04-1.58.07-3.23.3-4.95.57-7.4,1.16-13.42,3.04-14.19,7.68l-18.29,2.64-2.78.4-1.63.24,1,6.94c.18,1.22,1.31,2.06,2.52,1.89,1.22-.18,2.06-1.31,1.89-2.52l-.41-2.86,18.11-2.62c.72,2.65,2.1,5.31,4.46,7.2.98.78,2.12,1.43,3.44,1.91.81.32,1.71.56,2.69.68,1.42.26,2.98.33,4.72.16.62-.03,1.26-.09,1.94-.2,11.69-1.83,14.01-10.16,13.03-16.43-.16-1.01-.46-1.86-.95-2.58Z"/>
              <g>
                <path class="cls-1" d="M94.74,72.8l-15.63,21.42c-1.32-.48-2.45-1.13-3.44-1.91l14.26-19.55c1.74-.13,3.36-.15,4.8.04Z"/>
                <path class="cls-1" d="M100.54,75.86l-14.01,19.2c-1.73.17-3.3.1-4.72-.16l15.66-21.46c1.32.52,2.37,1.28,3.07,2.42Z"/>
              </g>
            </g>
            <g>
              <path class="cls-3" d="M138.86,72.59c.98,6.26-1.34,14.6-13.03,16.43-.67.11-1.32.17-1.94.2-1.73.17-3.3.1-4.72-.16-.99-.12-1.89-.36-2.69-.68-1.32-.48-2.45-1.13-3.44-1.91-2.92-2.34-4.36-5.84-4.87-9.07-.98-6.3,5.7-8.58,14.18-9.91,1.72-.27,3.37-.49,4.95-.57,1.74-.13,3.36-.15,4.8.04.99.12,1.91.32,2.72.64,1.32.52,2.37,1.28,3.07,2.42.49.72.8,1.57.96,2.58Z"/>
              <g>
                <path class="cls-1" d="M132.11,66.96l-15.63,21.42c-1.32-.48-2.45-1.13-3.44-1.91l14.26-19.55c1.74-.13,3.36-.15,4.8.04Z"/>
                <path class="cls-1" d="M137.9,70.02l-14.01,19.2c-1.73.17-3.3.1-4.72-.16l15.65-21.46c1.32.52,2.37,1.28,3.07,2.42Z"/>
              </g>
            </g>
          </g>
          <g>
            <path class="cls-7" d="M154.9,92.79c.65,4.16-3.47,8.26-9.21,9.16-5.74.9-10.92-1.75-11.57-5.91-.65-4.16,3.47-8.26,9.21-9.16,5.74-.9,10.92,1.75,11.57,5.91Z"/>
            <path class="cls-7" d="M77.55,104.88c.65,4.16-3.47,8.26-9.21,9.16-5.74.9-10.92-1.75-11.57-5.91-.65-4.16,3.47-8.26,9.21-9.16s10.92,1.75,11.57,5.91Z"/>
          </g>
          <g>
            <path class="cls-2" d="M102.35,91.23s2.7-3.9,6.66-3.16c4.9.91,5.94,4.9,3.67,9.7,0,0,13.16,2.58,2.64,13.61"/>
            <path class="cls-7" d="M109.94,91.77c.09.62-1.09,1.3-2.63,1.52-1.54.22-2.86-.1-2.95-.72-.09-.62,1.09-1.3,2.63-1.52,1.54-.22,2.86.1,2.95.72Z"/>
          </g>
        </g>
      </g>
    </g>
  </g>
</svg>